SplineFontDB: 3.2
FontName: BastyPixel
FullName: Basty Pixel
FamilyName: BastyPixel
Weight: Regular
Copyright: Copyright (c) 2020, Sebastian Sangervasi
UComments: "2020-5-8: Created with FontForge (http://fontforge.org)"
Version: 001.000
ItalicAngle: 0
UnderlinePosition: -99.6094
UnderlineWidth: 49.8047
Ascent: 800
Descent: 200
InvalidEm: 0
LayerCount: 2
Layer: 0 0 "Back" 1
Layer: 1 0 "Fore" 0
XUID: [1021 383 -2108585231 8656]
FSType: 0
OS2Version: 0
OS2_WeightWidthSlopeOnly: 0
OS2_UseTypoMetrics: 1
CreationTime: 1588963878
ModificationTime: 1589777186
PfmFamily: 17
TTFWeight: 400
TTFWidth: 5
LineGap: 90
VLineGap: 0
OS2TypoAscent: 0
OS2TypoAOffset: 1
OS2TypoDescent: 0
OS2TypoDOffset: 1
OS2TypoLinegap: 90
OS2WinAscent: 0
OS2WinAOffset: 1
OS2WinDescent: 0
OS2WinDOffset: 1
HheadAscent: 0
HheadAOffset: 1
HheadDescent: 0
HheadDOffset: 1
OS2Vendor: 'PfEd'
MarkAttachClasses: 1
DEI: 91125
LangName: 1033
Encoding: ISO8859-1
UnicodeInterp: none
NameList: AGL For New Fonts
DisplaySize: -48
AntiAlias: 1
FitToEm: 0
WinInfo: 0 26 19
BeginPrivate: 0
EndPrivate
Grid
-1000 666.699707031 m 0
 2000 666.699707031 l 1024
  Named: "Lower"
-1000 0 m 0
 2000 0 l 1024
  Named: "Base"
-1000 800 m 0
 2000 800 l 1024
  Named: "Cap"
499.860351562 1300 m 4
 499.860351562 -700 l 1028
  Named: "center"
EndSplineSet
BeginChars: 256 52

StartChar: A
Encoding: 65 65 0
Width: 734
Flags: HW
LayerCount: 2
Fore
SplineSet
234 667 m 5
 234 800 l 5
 367 800 l 5
 367 667 l 5
 234 667 l 5
367 667 m 5
 367 800 l 5
 500 800 l 5
 500 667 l 5
 367 667 l 5
100 533 m 5
 100 667 l 5
 234 667 l 5
 234 533 l 5
 100 533 l 5
500 533 m 5
 500 667 l 5
 634 667 l 5
 634 533 l 5
 500 533 l 5
100 400 m 5
 100 533 l 5
 234 533 l 5
 234 400 l 5
 100 400 l 5
500 400 m 5
 500 533 l 5
 634 533 l 5
 634 400 l 5
 500 400 l 5
100 267 m 5
 100 400 l 5
 234 400 l 5
 234 267 l 5
 100 267 l 5
500 267 m 5
 500 400 l 5
 634 400 l 5
 634 267 l 5
 500 267 l 5
100 133 m 5
 100 267 l 5
 234 267 l 5
 234 133 l 5
 100 133 l 5
234 133 m 5
 234 267 l 5
 367 267 l 5
 367 133 l 5
 234 133 l 5
367 133 m 5
 367 267 l 5
 500 267 l 5
 500 133 l 5
 367 133 l 5
500 133 m 5
 500 267 l 5
 634 267 l 5
 634 133 l 5
 500 133 l 5
100 0 m 5
 100 133 l 5
 234 133 l 5
 234 0 l 5
 100 0 l 5
500 0 m 5
 500 133 l 5
 634 133 l 5
 634 0 l 5
 500 0 l 5
EndSplineSet
EndChar

StartChar: B
Encoding: 66 66 1
Width: 734
Flags: HW
LayerCount: 2
Fore
SplineSet
100 667 m 1
 100 800 l 1
 234 800 l 1
 234 667 l 1
 100 667 l 1
234 667 m 1
 234 800 l 1
 367 800 l 1
 367 667 l 1
 234 667 l 1
367 667 m 1
 367 800 l 1
 500 800 l 1
 500 667 l 1
 367 667 l 1
100 533 m 1
 100 667 l 1
 234 667 l 1
 234 533 l 1
 100 533 l 1
500 533 m 1
 500 667 l 1
 634 667 l 1
 634 533 l 1
 500 533 l 1
100 400 m 1
 100 533 l 1
 234 533 l 1
 234 400 l 1
 100 400 l 1
500 400 m 1
 500 533 l 1
 634 533 l 1
 634 400 l 1
 500 400 l 1
100 267 m 1
 100 400 l 1
 234 400 l 1
 234 267 l 1
 100 267 l 1
234 267 m 1
 234 400 l 1
 367 400 l 1
 367 267 l 1
 234 267 l 1
367 267 m 1
 367 400 l 1
 500 400 l 1
 500 267 l 1
 367 267 l 1
100 133 m 1
 100 267 l 1
 234 267 l 1
 234 133 l 1
 100 133 l 1
500 133 m 1
 500 267 l 1
 634 267 l 1
 634 133 l 1
 500 133 l 1
100 0 m 1
 100 133 l 1
 234 133 l 1
 234 0 l 1
 100 0 l 1
234 0 m 1
 234 133 l 1
 367 133 l 1
 367 0 l 1
 234 0 l 1
367 0 m 1
 367 133 l 1
 500 133 l 1
 500 0 l 1
 367 0 l 1
EndSplineSet
EndChar

StartChar: C
Encoding: 67 67 2
Width: 734
Flags: HW
LayerCount: 2
Fore
SplineSet
367 667 m 1
 367 800 l 1
 500 800 l 1
 500 667 l 1
 367 667 l 1
500 667 m 1
 500 800 l 1
 634 800 l 1
 634 667 l 1
 500 667 l 1
234 533 m 1
 234 667 l 1
 367 667 l 1
 367 533 l 1
 234 533 l 1
100 400 m 1
 100 533 l 1
 234 533 l 1
 234 400 l 1
 100 400 l 1
100 267 m 1
 100 400 l 1
 234 400 l 1
 234 267 l 1
 100 267 l 1
100 133 m 1
 100 267 l 1
 234 267 l 1
 234 133 l 1
 100 133 l 1
234 0 m 1
 234 133 l 1
 367 133 l 1
 367 0 l 1
 234 0 l 1
367 0 m 1
 367 133 l 1
 500 133 l 1
 500 0 l 1
 367 0 l 1
500 0 m 1
 500 133 l 1
 634 133 l 1
 634 0 l 1
 500 0 l 1
EndSplineSet
EndChar

StartChar: D
Encoding: 68 68 3
Width: 734
Flags: HW
LayerCount: 2
Fore
SplineSet
100 667 m 5
 100 800 l 5
 234 800 l 5
 234 667 l 5
 100 667 l 5
234 667 m 5
 234 800 l 5
 367 800 l 5
 367 667 l 5
 234 667 l 5
367 667 m 5
 367 800 l 5
 500 800 l 5
 500 667 l 5
 367 667 l 5
100 533 m 5
 100 667 l 5
 234 667 l 5
 234 533 l 5
 100 533 l 5
500 533 m 5
 500 667 l 5
 634 667 l 5
 634 533 l 5
 500 533 l 5
100 400 m 5
 100 533 l 5
 234 533 l 5
 234 400 l 5
 100 400 l 5
500 400 m 5
 500 533 l 5
 634 533 l 5
 634 400 l 5
 500 400 l 5
100 267 m 5
 100 400 l 5
 234 400 l 5
 234 267 l 5
 100 267 l 5
500 267 m 5
 500 400 l 5
 634 400 l 5
 634 267 l 5
 500 267 l 5
100 133 m 5
 100 267 l 5
 234 267 l 5
 234 133 l 5
 100 133 l 5
500 133 m 5
 500 267 l 5
 634 267 l 5
 634 133 l 5
 500 133 l 5
100 0 m 5
 100 133 l 5
 234 133 l 5
 234 0 l 5
 100 0 l 5
234 0 m 5
 234 133 l 5
 367 133 l 5
 367 0 l 5
 234 0 l 5
367 0 m 5
 367 133 l 5
 500 133 l 5
 500 0 l 5
 367 0 l 5
EndSplineSet
EndChar

StartChar: E
Encoding: 69 69 4
Width: 734
Flags: HW
LayerCount: 2
Fore
SplineSet
100 667 m 5
 100 800 l 5
 234 800 l 5
 234 667 l 5
 100 667 l 5
234 667 m 5
 234 800 l 5
 367 800 l 5
 367 667 l 5
 234 667 l 5
367 667 m 5
 367 800 l 5
 500 800 l 5
 500 667 l 5
 367 667 l 5
100 533 m 5
 100 667 l 5
 234 667 l 5
 234 533 l 5
 100 533 l 5
100 400 m 5
 100 533 l 5
 234 533 l 5
 234 400 l 5
 100 400 l 5
100 267 m 5
 100 400 l 5
 234 400 l 5
 234 267 l 5
 100 267 l 5
234 267 m 5
 234 400 l 5
 367 400 l 5
 367 267 l 5
 234 267 l 5
367 267 m 5
 367 400 l 5
 500 400 l 5
 500 267 l 5
 367 267 l 5
100 133 m 5
 100 267 l 5
 234 267 l 5
 234 133 l 5
 100 133 l 5
100 0 m 5
 100 133 l 5
 234 133 l 5
 234 0 l 5
 100 0 l 5
234 0 m 5
 234 133 l 5
 367 133 l 5
 367 0 l 5
 234 0 l 5
367 0 m 5
 367 133 l 5
 500 133 l 5
 500 0 l 5
 367 0 l 5
500 0 m 5
 500 133 l 5
 634 133 l 5
 634 0 l 5
 500 0 l 5
EndSplineSet
EndChar

StartChar: F
Encoding: 70 70 5
Width: 734
Flags: HW
LayerCount: 2
Fore
SplineSet
234 667 m 5
 234 800 l 5
 367 800 l 5
 367 667 l 5
 234 667 l 5
367 667 m 5
 367 800 l 5
 500 800 l 5
 500 667 l 5
 367 667 l 5
500 667 m 5
 500 800 l 5
 634 800 l 5
 634 667 l 5
 500 667 l 5
100 533 m 5
 100 667 l 5
 234 667 l 5
 234 533 l 5
 100 533 l 5
100 400 m 5
 100 533 l 5
 234 533 l 5
 234 400 l 5
 100 400 l 5
234 400 m 5
 234 533 l 5
 367 533 l 5
 367 400 l 5
 234 400 l 5
367 400 m 5
 367 533 l 5
 500 533 l 5
 500 400 l 5
 367 400 l 5
100 267 m 5
 100 400 l 5
 234 400 l 5
 234 267 l 5
 100 267 l 5
100 133 m 5
 100 267 l 5
 234 267 l 5
 234 133 l 5
 100 133 l 5
100 0 m 5
 100 133 l 5
 234 133 l 5
 234 0 l 5
 100 0 l 5
EndSplineSet
EndChar

StartChar: G
Encoding: 71 71 6
Width: 734
Flags: HW
LayerCount: 2
Fore
SplineSet
234 667 m 5
 234 800 l 5
 367 800 l 5
 367 667 l 5
 234 667 l 5
367 667 m 5
 367 800 l 5
 500 800 l 5
 500 667 l 5
 367 667 l 5
500 667 m 5
 500 800 l 5
 634 800 l 5
 634 667 l 5
 500 667 l 5
100 533 m 5
 100 667 l 5
 234 667 l 5
 234 533 l 5
 100 533 l 5
100 400 m 5
 100 533 l 5
 234 533 l 5
 234 400 l 5
 100 400 l 5
100 267 m 5
 100 400 l 5
 234 400 l 5
 234 267 l 5
 100 267 l 5
367 267 m 5
 367 400 l 5
 500 400 l 5
 500 267 l 5
 367 267 l 5
500 267 m 5
 500 400 l 5
 634 400 l 5
 634 267 l 5
 500 267 l 5
100 133 m 5
 100 267 l 5
 234 267 l 5
 234 133 l 5
 100 133 l 5
500 133 m 5
 500 267 l 5
 634 267 l 5
 634 133 l 5
 500 133 l 5
234 0 m 5
 234 133 l 5
 367 133 l 5
 367 0 l 5
 234 0 l 5
367 0 m 5
 367 133 l 5
 500 133 l 5
 500 0 l 5
 367 0 l 5
500 0 m 5
 500 133 l 5
 634 133 l 5
 634 0 l 5
 500 0 l 5
EndSplineSet
EndChar

StartChar: H
Encoding: 72 72 7
Width: 734
Flags: HW
LayerCount: 2
Fore
SplineSet
100 667 m 5
 100 800 l 5
 234 800 l 5
 234 667 l 5
 100 667 l 5
500 667 m 5
 500 800 l 5
 634 800 l 5
 634 667 l 5
 500 667 l 5
100 533 m 5
 100 667 l 5
 234 667 l 5
 234 533 l 5
 100 533 l 5
500 533 m 5
 500 667 l 5
 634 667 l 5
 634 533 l 5
 500 533 l 5
100 400 m 5
 100 533 l 5
 234 533 l 5
 234 400 l 5
 100 400 l 5
500 400 m 5
 500 533 l 5
 634 533 l 5
 634 400 l 5
 500 400 l 5
100 267 m 5
 100 400 l 5
 234 400 l 5
 234 267 l 5
 100 267 l 5
234 267 m 5
 234 400 l 5
 367 400 l 5
 367 267 l 5
 234 267 l 5
367 267 m 5
 367 400 l 5
 500 400 l 5
 500 267 l 5
 367 267 l 5
500 267 m 5
 500 400 l 5
 634 400 l 5
 634 267 l 5
 500 267 l 5
100 133 m 5
 100 267 l 5
 234 267 l 5
 234 133 l 5
 100 133 l 5
500 133 m 5
 500 267 l 5
 634 267 l 5
 634 133 l 5
 500 133 l 5
100 0 m 5
 100 133 l 5
 234 133 l 5
 234 0 l 5
 100 0 l 5
500 0 m 5
 500 133 l 5
 634 133 l 5
 634 0 l 5
 500 0 l 5
EndSplineSet
EndChar

StartChar: I
Encoding: 73 73 8
Width: 734
Flags: HW
LayerCount: 2
Fore
SplineSet
100 667 m 5
 100 800 l 5
 234 800 l 5
 234 667 l 5
 100 667 l 5
234 667 m 5
 234 800 l 5
 367 800 l 5
 367 667 l 5
 234 667 l 5
367 667 m 5
 367 800 l 5
 500 800 l 5
 500 667 l 5
 367 667 l 5
500 667 m 5
 500 800 l 5
 634 800 l 5
 634 667 l 5
 500 667 l 5
234 533 m 5
 234 667 l 5
 367 667 l 5
 367 533 l 5
 234 533 l 5
234 400 m 5
 234 533 l 5
 367 533 l 5
 367 400 l 5
 234 400 l 5
234 267 m 5
 234 400 l 5
 367 400 l 5
 367 267 l 5
 234 267 l 5
234 133 m 5
 234 267 l 5
 367 267 l 5
 367 133 l 5
 234 133 l 5
100 0 m 5
 100 133 l 5
 234 133 l 5
 234 0 l 5
 100 0 l 5
234 0 m 5
 234 133 l 5
 367 133 l 5
 367 0 l 5
 234 0 l 5
367 0 m 5
 367 133 l 5
 500 133 l 5
 500 0 l 5
 367 0 l 5
500 0 m 5
 500 133 l 5
 634 133 l 5
 634 0 l 5
 500 0 l 5
EndSplineSet
EndChar

StartChar: J
Encoding: 74 74 9
Width: 734
Flags: HW
LayerCount: 2
Fore
SplineSet
234 667 m 1
 234 800 l 1
 367 800 l 1
 367 667 l 1
 234 667 l 1
367 667 m 1
 367 800 l 1
 500 800 l 1
 500 667 l 1
 367 667 l 1
500 667 m 1
 500 800 l 1
 634 800 l 1
 634 667 l 1
 500 667 l 1
367 533 m 1
 367 667 l 1
 500 667 l 1
 500 533 l 1
 367 533 l 1
367 400 m 1
 367 533 l 1
 500 533 l 1
 500 400 l 1
 367 400 l 1
367 267 m 1
 367 400 l 1
 500 400 l 1
 500 267 l 1
 367 267 l 1
100 133 m 1
 100 267 l 1
 234 267 l 1
 234 133 l 1
 100 133 l 1
367 133 m 1
 367 267 l 1
 500 267 l 1
 500 133 l 1
 367 133 l 1
100 0 m 1
 100 133 l 1
 234 133 l 1
 234 0 l 1
 100 0 l 1
234 0 m 1
 234 133 l 1
 367 133 l 1
 367 0 l 1
 234 0 l 1
367 0 m 1
 367 133 l 1
 500 133 l 1
 500 0 l 1
 367 0 l 1
EndSplineSet
EndChar

StartChar: K
Encoding: 75 75 10
Width: 734
Flags: HW
LayerCount: 2
Fore
SplineSet
100 667 m 5
 100 800 l 5
 234 800 l 5
 234 667 l 5
 100 667 l 5
500 667 m 5
 500 800 l 5
 634 800 l 5
 634 667 l 5
 500 667 l 5
100 533 m 5
 100 667 l 5
 234 667 l 5
 234 533 l 5
 100 533 l 5
500 533 m 5
 500 667 l 5
 634 667 l 5
 634 533 l 5
 500 533 l 5
100 400 m 5
 100 533 l 5
 234 533 l 5
 234 400 l 5
 100 400 l 5
367 400 m 5
 367 533 l 5
 500 533 l 5
 500 400 l 5
 367 400 l 5
100 267 m 5
 100 400 l 5
 234 400 l 5
 234 267 l 5
 100 267 l 5
234 267 m 5
 234 400 l 5
 367 400 l 5
 367 267 l 5
 234 267 l 5
100 133 m 5
 100 267 l 5
 234 267 l 5
 234 133 l 5
 100 133 l 5
367 133 m 5
 367 267 l 5
 500 267 l 5
 500 133 l 5
 367 133 l 5
100 0 m 5
 100 133 l 5
 234 133 l 5
 234 0 l 5
 100 0 l 5
500 0 m 5
 500 133 l 5
 634 133 l 5
 634 0 l 5
 500 0 l 5
EndSplineSet
EndChar

StartChar: L
Encoding: 76 76 11
Width: 734
Flags: HW
LayerCount: 2
Fore
SplineSet
100 667 m 5
 100 800 l 5
 234 800 l 5
 234 667 l 5
 100 667 l 5
100 533 m 5
 100 667 l 5
 234 667 l 5
 234 533 l 5
 100 533 l 5
100 400 m 5
 100 533 l 5
 234 533 l 5
 234 400 l 5
 100 400 l 5
100 267 m 5
 100 400 l 5
 234 400 l 5
 234 267 l 5
 100 267 l 5
100 133 m 5
 100 267 l 5
 234 267 l 5
 234 133 l 5
 100 133 l 5
234 0 m 5
 234 133 l 5
 367 133 l 5
 367 0 l 5
 234 0 l 5
367 0 m 5
 367 133 l 5
 500 133 l 5
 500 0 l 5
 367 0 l 5
500 0 m 5
 500 133 l 5
 634 133 l 5
 634 0 l 5
 500 0 l 5
EndSplineSet
EndChar

StartChar: M
Encoding: 77 77 12
Width: 734
Flags: HW
LayerCount: 2
Fore
SplineSet
100 667 m 5
 100 800 l 5
 234 800 l 5
 234 667 l 5
 100 667 l 5
367 667 m 5
 367 800 l 5
 500 800 l 5
 500 667 l 5
 367 667 l 5
500 667 m 5
 500 800 l 5
 634 800 l 5
 634 667 l 5
 500 667 l 5
100 533 m 5
 100 667 l 5
 234 667 l 5
 234 533 l 5
 100 533 l 5
234 533 m 5
 234 667 l 5
 367 667 l 5
 367 533 l 5
 234 533 l 5
367 533 m 5
 367 667 l 5
 500 667 l 5
 500 533 l 5
 367 533 l 5
500 533 m 5
 500 667 l 5
 634 667 l 5
 634 533 l 5
 500 533 l 5
100 400 m 5
 100 533 l 5
 234 533 l 5
 234 400 l 5
 100 400 l 5
234 400 m 5
 234 533 l 5
 367 533 l 5
 367 400 l 5
 234 400 l 5
500 400 m 5
 500 533 l 5
 634 533 l 5
 634 400 l 5
 500 400 l 5
100 267 m 5
 100 400 l 5
 234 400 l 5
 234 267 l 5
 100 267 l 5
500 267 m 5
 500 400 l 5
 634 400 l 5
 634 267 l 5
 500 267 l 5
100 133 m 5
 100 267 l 5
 234 267 l 5
 234 133 l 5
 100 133 l 5
500 133 m 5
 500 267 l 5
 634 267 l 5
 634 133 l 5
 500 133 l 5
100 0 m 5
 100 133 l 5
 234 133 l 5
 234 0 l 5
 100 0 l 5
500 0 m 5
 500 133 l 5
 634 133 l 5
 634 0 l 5
 500 0 l 5
EndSplineSet
EndChar

StartChar: N
Encoding: 78 78 13
Width: 734
Flags: HW
LayerCount: 2
Fore
SplineSet
100 667 m 5
 100 800 l 5
 234 800 l 5
 234 667 l 5
 100 667 l 5
234 667 m 5
 234 800 l 5
 367 800 l 5
 367 667 l 5
 234 667 l 5
500 667 m 5
 500 800 l 5
 634 800 l 5
 634 667 l 5
 500 667 l 5
100 533 m 5
 100 667 l 5
 234 667 l 5
 234 533 l 5
 100 533 l 5
234 533 m 5
 234 667 l 5
 367 667 l 5
 367 533 l 5
 234 533 l 5
500 533 m 5
 500 667 l 5
 634 667 l 5
 634 533 l 5
 500 533 l 5
100 400 m 5
 100 533 l 5
 234 533 l 5
 234 400 l 5
 100 400 l 5
367 400 m 5
 367 533 l 5
 500 533 l 5
 500 400 l 5
 367 400 l 5
500 400 m 5
 500 533 l 5
 634 533 l 5
 634 400 l 5
 500 400 l 5
100 267 m 5
 100 400 l 5
 234 400 l 5
 234 267 l 5
 100 267 l 5
367 267 m 5
 367 400 l 5
 500 400 l 5
 500 267 l 5
 367 267 l 5
500 267 m 5
 500 400 l 5
 634 400 l 5
 634 267 l 5
 500 267 l 5
100 133 m 5
 100 267 l 5
 234 267 l 5
 234 133 l 5
 100 133 l 5
500 133 m 5
 500 267 l 5
 634 267 l 5
 634 133 l 5
 500 133 l 5
100 0 m 5
 100 133 l 5
 234 133 l 5
 234 0 l 5
 100 0 l 5
500 0 m 5
 500 133 l 5
 634 133 l 5
 634 0 l 5
 500 0 l 5
EndSplineSet
EndChar

StartChar: O
Encoding: 79 79 14
Width: 734
Flags: HW
LayerCount: 2
Fore
SplineSet
234 667 m 5
 234 800 l 5
 367 800 l 5
 367 667 l 5
 234 667 l 5
367 667 m 5
 367 800 l 5
 500 800 l 5
 500 667 l 5
 367 667 l 5
500 667 m 5
 500 800 l 5
 634 800 l 5
 634 667 l 5
 500 667 l 5
100 533 m 5
 100 667 l 5
 234 667 l 5
 234 533 l 5
 100 533 l 5
500 533 m 5
 500 667 l 5
 634 667 l 5
 634 533 l 5
 500 533 l 5
100 400 m 5
 100 533 l 5
 234 533 l 5
 234 400 l 5
 100 400 l 5
500 400 m 5
 500 533 l 5
 634 533 l 5
 634 400 l 5
 500 400 l 5
100 267 m 5
 100 400 l 5
 234 400 l 5
 234 267 l 5
 100 267 l 5
500 267 m 5
 500 400 l 5
 634 400 l 5
 634 267 l 5
 500 267 l 5
100 133 m 5
 100 267 l 5
 234 267 l 5
 234 133 l 5
 100 133 l 5
500 133 m 5
 500 267 l 5
 634 267 l 5
 634 133 l 5
 500 133 l 5
100 0 m 5
 100 133 l 5
 234 133 l 5
 234 0 l 5
 100 0 l 5
234 0 m 5
 234 133 l 5
 367 133 l 5
 367 0 l 5
 234 0 l 5
367 0 m 5
 367 133 l 5
 500 133 l 5
 500 0 l 5
 367 0 l 5
EndSplineSet
EndChar

StartChar: P
Encoding: 80 80 15
Width: 734
Flags: HW
LayerCount: 2
Fore
SplineSet
100 667 m 1
 100 800 l 1
 234 800 l 1
 234 667 l 1
 100 667 l 1
234 667 m 1
 234 800 l 1
 367 800 l 1
 367 667 l 1
 234 667 l 1
367 667 m 1
 367 800 l 1
 500 800 l 1
 500 667 l 1
 367 667 l 1
100 533 m 1
 100 667 l 1
 234 667 l 1
 234 533 l 1
 100 533 l 1
500 533 m 1
 500 667 l 1
 634 667 l 1
 634 533 l 1
 500 533 l 1
100 400 m 1
 100 533 l 1
 234 533 l 1
 234 400 l 1
 100 400 l 1
234 400 m 1
 234 533 l 1
 367 533 l 1
 367 400 l 1
 234 400 l 1
367 400 m 1
 367 533 l 1
 500 533 l 1
 500 400 l 1
 367 400 l 1
500 400 m 1
 500 533 l 1
 634 533 l 1
 634 400 l 1
 500 400 l 1
100 267 m 1
 100 400 l 1
 234 400 l 1
 234 267 l 1
 100 267 l 1
100 133 m 1
 100 267 l 1
 234 267 l 1
 234 133 l 1
 100 133 l 1
100 0 m 1
 100 133 l 1
 234 133 l 1
 234 0 l 1
 100 0 l 1
EndSplineSet
EndChar

StartChar: Q
Encoding: 81 81 16
Width: 734
Flags: HW
LayerCount: 2
Fore
SplineSet
100 667 m 5
 100 800 l 5
 234 800 l 5
 234 667 l 5
 100 667 l 5
234 667 m 5
 234 800 l 5
 367 800 l 5
 367 667 l 5
 234 667 l 5
367 667 m 5
 367 800 l 5
 500 800 l 5
 500 667 l 5
 367 667 l 5
100 533 m 5
 100 667 l 5
 234 667 l 5
 234 533 l 5
 100 533 l 5
500 533 m 5
 500 667 l 5
 634 667 l 5
 634 533 l 5
 500 533 l 5
100 400 m 5
 100 533 l 5
 234 533 l 5
 234 400 l 5
 100 400 l 5
500 400 m 5
 500 533 l 5
 634 533 l 5
 634 400 l 5
 500 400 l 5
100 267 m 5
 100 400 l 5
 234 400 l 5
 234 267 l 5
 100 267 l 5
500 267 m 5
 500 400 l 5
 634 400 l 5
 634 267 l 5
 500 267 l 5
100 133 m 5
 100 267 l 5
 234 267 l 5
 234 133 l 5
 100 133 l 5
367 133 m 5
 367 267 l 5
 500 267 l 5
 500 133 l 5
 367 133 l 5
500 133 m 5
 500 267 l 5
 634 267 l 5
 634 133 l 5
 500 133 l 5
234 0 m 5
 234 133 l 5
 367 133 l 5
 367 0 l 5
 234 0 l 5
367 0 m 5
 367 133 l 5
 500 133 l 5
 500 0 l 5
 367 0 l 5
500 0 m 5
 500 133 l 5
 634 133 l 5
 634 0 l 5
 500 0 l 5
EndSplineSet
EndChar

StartChar: R
Encoding: 82 82 17
Width: 734
Flags: HW
LayerCount: 2
Fore
SplineSet
100 667 m 5
 100 800 l 5
 234 800 l 5
 234 667 l 5
 100 667 l 5
234 667 m 5
 234 800 l 5
 367 800 l 5
 367 667 l 5
 234 667 l 5
367 667 m 5
 367 800 l 5
 500 800 l 5
 500 667 l 5
 367 667 l 5
100 533 m 5
 100 667 l 5
 234 667 l 5
 234 533 l 5
 100 533 l 5
500 533 m 5
 500 667 l 5
 634 667 l 5
 634 533 l 5
 500 533 l 5
100 400 m 5
 100 533 l 5
 234 533 l 5
 234 400 l 5
 100 400 l 5
500 400 m 5
 500 533 l 5
 634 533 l 5
 634 400 l 5
 500 400 l 5
100 267 m 5
 100 400 l 5
 234 400 l 5
 234 267 l 5
 100 267 l 5
234 267 m 5
 234 400 l 5
 367 400 l 5
 367 267 l 5
 234 267 l 5
367 267 m 5
 367 400 l 5
 500 400 l 5
 500 267 l 5
 367 267 l 5
100 133 m 5
 100 267 l 5
 234 267 l 5
 234 133 l 5
 100 133 l 5
500 133 m 5
 500 267 l 5
 634 267 l 5
 634 133 l 5
 500 133 l 5
100 0 m 5
 100 133 l 5
 234 133 l 5
 234 0 l 5
 100 0 l 5
500 0 m 5
 500 133 l 5
 634 133 l 5
 634 0 l 5
 500 0 l 5
EndSplineSet
EndChar

StartChar: S
Encoding: 83 83 18
Width: 734
Flags: HW
LayerCount: 2
Fore
SplineSet
234 667 m 5
 234 800 l 5
 367 800 l 5
 367 667 l 5
 234 667 l 5
367 667 m 5
 367 800 l 5
 500 800 l 5
 500 667 l 5
 367 667 l 5
500 667 m 5
 500 800 l 5
 634 800 l 5
 634 667 l 5
 500 667 l 5
100 533 m 5
 100 667 l 5
 234 667 l 5
 234 533 l 5
 100 533 l 5
100 400 m 5
 100 533 l 5
 234 533 l 5
 234 400 l 5
 100 400 l 5
234 400 m 5
 234 533 l 5
 367 533 l 5
 367 400 l 5
 234 400 l 5
367 400 m 5
 367 533 l 5
 500 533 l 5
 500 400 l 5
 367 400 l 5
500 267 m 5
 500 400 l 5
 634 400 l 5
 634 267 l 5
 500 267 l 5
500 133 m 5
 500 267 l 5
 634 267 l 5
 634 133 l 5
 500 133 l 5
100 0 m 5
 100 133 l 5
 234 133 l 5
 234 0 l 5
 100 0 l 5
234 0 m 5
 234 133 l 5
 367 133 l 5
 367 0 l 5
 234 0 l 5
367 0 m 5
 367 133 l 5
 500 133 l 5
 500 0 l 5
 367 0 l 5
EndSplineSet
EndChar

StartChar: T
Encoding: 84 84 19
Width: 734
Flags: HW
LayerCount: 2
Fore
SplineSet
100 667 m 5
 100 800 l 5
 234 800 l 5
 234 667 l 5
 100 667 l 5
234 667 m 5
 234 800 l 5
 367 800 l 5
 367 667 l 5
 234 667 l 5
367 667 m 5
 367 800 l 5
 500 800 l 5
 500 667 l 5
 367 667 l 5
500 667 m 5
 500 800 l 5
 634 800 l 5
 634 667 l 5
 500 667 l 5
234 533 m 5
 234 667 l 5
 367 667 l 5
 367 533 l 5
 234 533 l 5
234 400 m 5
 234 533 l 5
 367 533 l 5
 367 400 l 5
 234 400 l 5
234 267 m 5
 234 400 l 5
 367 400 l 5
 367 267 l 5
 234 267 l 5
234 133 m 5
 234 267 l 5
 367 267 l 5
 367 133 l 5
 234 133 l 5
234 0 m 5
 234 133 l 5
 367 133 l 5
 367 0 l 5
 234 0 l 5
EndSplineSet
EndChar

StartChar: U
Encoding: 85 85 20
Width: 734
Flags: HW
LayerCount: 2
Fore
SplineSet
100 667 m 5
 100 800 l 5
 234 800 l 5
 234 667 l 5
 100 667 l 5
500 667 m 5
 500 800 l 5
 634 800 l 5
 634 667 l 5
 500 667 l 5
100 533 m 5
 100 667 l 5
 234 667 l 5
 234 533 l 5
 100 533 l 5
500 533 m 5
 500 667 l 5
 634 667 l 5
 634 533 l 5
 500 533 l 5
100 400 m 5
 100 533 l 5
 234 533 l 5
 234 400 l 5
 100 400 l 5
500 400 m 5
 500 533 l 5
 634 533 l 5
 634 400 l 5
 500 400 l 5
100 267 m 5
 100 400 l 5
 234 400 l 5
 234 267 l 5
 100 267 l 5
500 267 m 5
 500 400 l 5
 634 400 l 5
 634 267 l 5
 500 267 l 5
100 133 m 5
 100 267 l 5
 234 267 l 5
 234 133 l 5
 100 133 l 5
500 133 m 5
 500 267 l 5
 634 267 l 5
 634 133 l 5
 500 133 l 5
234 0 m 5
 234 133 l 5
 367 133 l 5
 367 0 l 5
 234 0 l 5
367 0 m 5
 367 133 l 5
 500 133 l 5
 500 0 l 5
 367 0 l 5
500 0 m 5
 500 133 l 5
 634 133 l 5
 634 0 l 5
 500 0 l 5
EndSplineSet
EndChar

StartChar: V
Encoding: 86 86 21
Width: 734
Flags: HW
LayerCount: 2
Fore
SplineSet
100 667 m 5
 100 800 l 5
 234 800 l 5
 234 667 l 5
 100 667 l 5
500 667 m 5
 500 800 l 5
 634 800 l 5
 634 667 l 5
 500 667 l 5
100 533 m 5
 100 667 l 5
 234 667 l 5
 234 533 l 5
 100 533 l 5
500 533 m 5
 500 667 l 5
 634 667 l 5
 634 533 l 5
 500 533 l 5
100 400 m 5
 100 533 l 5
 234 533 l 5
 234 400 l 5
 100 400 l 5
500 400 m 5
 500 533 l 5
 634 533 l 5
 634 400 l 5
 500 400 l 5
100 267 m 5
 100 400 l 5
 234 400 l 5
 234 267 l 5
 100 267 l 5
500 267 m 5
 500 400 l 5
 634 400 l 5
 634 267 l 5
 500 267 l 5
234 133 m 5
 234 267 l 5
 367 267 l 5
 367 133 l 5
 234 133 l 5
500 133 m 5
 500 267 l 5
 634 267 l 5
 634 133 l 5
 500 133 l 5
367 0 m 5
 367 133 l 5
 500 133 l 5
 500 0 l 5
 367 0 l 5
EndSplineSet
EndChar

StartChar: W
Encoding: 87 87 22
Width: 734
Flags: HW
LayerCount: 2
Fore
SplineSet
100 667 m 5
 100 800 l 5
 234 800 l 5
 234 667 l 5
 100 667 l 5
500 667 m 5
 500 800 l 5
 634 800 l 5
 634 667 l 5
 500 667 l 5
100 533 m 5
 100 667 l 5
 234 667 l 5
 234 533 l 5
 100 533 l 5
500 533 m 5
 500 667 l 5
 634 667 l 5
 634 533 l 5
 500 533 l 5
100 400 m 5
 100 533 l 5
 234 533 l 5
 234 400 l 5
 100 400 l 5
500 400 m 5
 500 533 l 5
 634 533 l 5
 634 400 l 5
 500 400 l 5
100 267 m 5
 100 400 l 5
 234 400 l 5
 234 267 l 5
 100 267 l 5
234 267 m 5
 234 400 l 5
 367 400 l 5
 367 267 l 5
 234 267 l 5
500 267 m 5
 500 400 l 5
 634 400 l 5
 634 267 l 5
 500 267 l 5
100 133 m 5
 100 267 l 5
 234 267 l 5
 234 133 l 5
 100 133 l 5
234 133 m 5
 234 267 l 5
 367 267 l 5
 367 133 l 5
 234 133 l 5
367 133 m 5
 367 267 l 5
 500 267 l 5
 500 133 l 5
 367 133 l 5
500 133 m 5
 500 267 l 5
 634 267 l 5
 634 133 l 5
 500 133 l 5
100 0 m 5
 100 133 l 5
 234 133 l 5
 234 0 l 5
 100 0 l 5
367 0 m 5
 367 133 l 5
 500 133 l 5
 500 0 l 5
 367 0 l 5
500 0 m 5
 500 133 l 5
 634 133 l 5
 634 0 l 5
 500 0 l 5
EndSplineSet
EndChar

StartChar: X
Encoding: 88 88 23
Width: 734
Flags: HW
LayerCount: 2
Fore
SplineSet
100.33984375 666.66015625 m 1
 100.33984375 799.990234375 l 1
 233.669921875 799.990234375 l 1
 233.669921875 666.66015625 l 1
 100.33984375 666.66015625 l 1
500.330078125 666.66015625 m 1
 500.330078125 799.990234375 l 1
 633.66015625 799.990234375 l 1
 633.66015625 666.66015625 l 1
 500.330078125 666.66015625 l 1
100.33984375 533.330078125 m 1
 100.33984375 666.66015625 l 1
 233.669921875 666.66015625 l 1
 233.669921875 533.330078125 l 1
 100.33984375 533.330078125 l 1
500.330078125 533.330078125 m 1
 500.330078125 666.66015625 l 1
 633.66015625 666.66015625 l 1
 633.66015625 533.330078125 l 1
 500.330078125 533.330078125 l 1
233.669921875 400 m 1
 233.669921875 533.330078125 l 1
 367 533.330078125 l 1
 367 400 l 1
 233.669921875 400 l 1
367 400 m 1
 367 533.330078125 l 1
 500.330078125 533.330078125 l 1
 500.330078125 400 l 1
 367 400 l 1
233.669921875 266.669921875 m 1
 233.669921875 400 l 1
 367 400 l 1
 367 266.669921875 l 1
 233.669921875 266.669921875 l 1
367 266.669921875 m 1
 367 400 l 1
 500.330078125 400 l 1
 500.330078125 266.669921875 l 1
 367 266.669921875 l 1
100.33984375 133.33984375 m 1
 100.33984375 266.669921875 l 1
 233.669921875 266.669921875 l 1
 233.669921875 133.33984375 l 1
 100.33984375 133.33984375 l 1
500.330078125 133.33984375 m 1
 500.330078125 266.669921875 l 1
 633.66015625 266.669921875 l 1
 633.66015625 133.33984375 l 1
 500.330078125 133.33984375 l 1
100.33984375 0.009765625 m 1
 100.33984375 133.33984375 l 1
 233.669921875 133.33984375 l 1
 233.669921875 0.009765625 l 1
 100.33984375 0.009765625 l 1
500.330078125 0.009765625 m 1
 500.330078125 133.33984375 l 1
 633.66015625 133.33984375 l 1
 633.66015625 0.009765625 l 1
 500.330078125 0.009765625 l 1
EndSplineSet
EndChar

StartChar: Y
Encoding: 89 89 24
Width: 734
Flags: HW
LayerCount: 2
Fore
SplineSet
100 667 m 5
 100 800 l 5
 234 800 l 5
 234 667 l 5
 100 667 l 5
500 667 m 5
 500 800 l 5
 634 800 l 5
 634 667 l 5
 500 667 l 5
100 533 m 5
 100 667 l 5
 234 667 l 5
 234 533 l 5
 100 533 l 5
500 533 m 5
 500 667 l 5
 634 667 l 5
 634 533 l 5
 500 533 l 5
100 400 m 5
 100 533 l 5
 234 533 l 5
 234 400 l 5
 100 400 l 5
234 400 m 5
 234 533 l 5
 367 533 l 5
 367 400 l 5
 234 400 l 5
367 400 m 5
 367 533 l 5
 500 533 l 5
 500 400 l 5
 367 400 l 5
500 400 m 5
 500 533 l 5
 634 533 l 5
 634 400 l 5
 500 400 l 5
234 267 m 5
 234 400 l 5
 367 400 l 5
 367 267 l 5
 234 267 l 5
234 133 m 5
 234 267 l 5
 367 267 l 5
 367 133 l 5
 234 133 l 5
234 0 m 5
 234 133 l 5
 367 133 l 5
 367 0 l 5
 234 0 l 5
EndSplineSet
EndChar

StartChar: Z
Encoding: 90 90 25
Width: 734
Flags: HW
LayerCount: 2
Fore
SplineSet
234 667 m 1
 234 800 l 1
 367 800 l 1
 367 667 l 1
 234 667 l 1
367 667 m 1
 367 800 l 1
 500 800 l 1
 500 667 l 1
 367 667 l 1
500 667 m 1
 500 800 l 1
 634 800 l 1
 634 667 l 1
 500 667 l 1
500 533 m 1
 500 667 l 1
 634 667 l 1
 634 533 l 1
 500 533 l 1
367 400 m 1
 367 533 l 1
 500 533 l 1
 500 400 l 1
 367 400 l 1
234 267 m 1
 234 400 l 1
 367 400 l 1
 367 267 l 1
 234 267 l 1
100 133 m 1
 100 267 l 1
 234 267 l 1
 234 133 l 1
 100 133 l 1
100 0 m 1
 100 133 l 1
 234 133 l 1
 234 0 l 1
 100 0 l 1
234 0 m 1
 234 133 l 1
 367 133 l 1
 367 0 l 1
 234 0 l 1
367 0 m 1
 367 133 l 1
 500 133 l 1
 500 0 l 1
 367 0 l 1
500 0 m 1
 500 133 l 1
 634 133 l 1
 634 0 l 1
 500 0 l 1
EndSplineSet
EndChar

StartChar: a
Encoding: 97 97 26
Width: 734
Flags: HW
LayerCount: 2
Fore
SplineSet
256.170898438 555.831054688 m 1
 256.170898438 666.66015625 l 1
 367 666.66015625 l 1
 367 555.831054688 l 1
 256.170898438 555.831054688 l 1
367 555.831054688 m 1
 367 666.66015625 l 1
 477.829101562 666.66015625 l 1
 477.829101562 555.831054688 l 1
 367 555.831054688 l 1
144.508789062 444.168945312 m 1
 144.508789062 555.831054688 l 1
 256.170898438 555.831054688 l 1
 256.170898438 444.168945312 l 1
 144.508789062 444.168945312 l 1
477.829101562 444.168945312 m 1
 477.829101562 555.831054688 l 1
 589.491210938 555.831054688 l 1
 589.491210938 444.168945312 l 1
 477.829101562 444.168945312 l 1
144.508789062 333.33984375 m 1
 144.508789062 444.168945312 l 1
 256.170898438 444.168945312 l 1
 256.170898438 333.33984375 l 1
 144.508789062 333.33984375 l 1
477.829101562 333.33984375 m 1
 477.829101562 444.168945312 l 1
 589.491210938 444.168945312 l 1
 589.491210938 333.33984375 l 1
 477.829101562 333.33984375 l 1
144.508789062 222.510742188 m 1
 144.508789062 333.33984375 l 1
 256.170898438 333.33984375 l 1
 256.170898438 222.510742188 l 1
 144.508789062 222.510742188 l 1
477.829101562 222.510742188 m 1
 477.829101562 333.33984375 l 1
 589.491210938 333.33984375 l 1
 589.491210938 222.510742188 l 1
 477.829101562 222.510742188 l 1
144.508789062 110.848632812 m 1
 144.508789062 222.510742188 l 1
 256.170898438 222.510742188 l 1
 256.170898438 110.848632812 l 1
 144.508789062 110.848632812 l 1
256.170898438 110.848632812 m 1
 256.170898438 222.510742188 l 1
 367 222.510742188 l 1
 367 110.848632812 l 1
 256.170898438 110.848632812 l 1
367 110.848632812 m 1
 367 222.510742188 l 1
 477.829101562 222.510742188 l 1
 477.829101562 110.848632812 l 1
 367 110.848632812 l 1
477.829101562 110.848632812 m 1
 477.829101562 222.510742188 l 1
 589.491210938 222.510742188 l 1
 589.491210938 110.848632812 l 1
 477.829101562 110.848632812 l 1
144.508789062 0.01953125 m 1
 144.508789062 110.848632812 l 1
 256.170898438 110.848632812 l 1
 256.170898438 0.01953125 l 1
 144.508789062 0.01953125 l 1
477.829101562 0.01953125 m 1
 477.829101562 110.848632812 l 1
 589.491210938 110.848632812 l 1
 589.491210938 0.01953125 l 1
 477.829101562 0.01953125 l 1
EndSplineSet
EndChar

StartChar: b
Encoding: 98 98 27
Width: 734
Flags: HW
LayerCount: 2
Fore
SplineSet
144.508789062 555.831054688 m 1
 144.508789062 666.66015625 l 1
 256.170898438 666.66015625 l 1
 256.170898438 555.831054688 l 1
 144.508789062 555.831054688 l 1
256.170898438 555.831054688 m 1
 256.170898438 666.66015625 l 1
 367 666.66015625 l 1
 367 555.831054688 l 1
 256.170898438 555.831054688 l 1
367 555.831054688 m 1
 367 666.66015625 l 1
 477.829101562 666.66015625 l 1
 477.829101562 555.831054688 l 1
 367 555.831054688 l 1
144.508789062 444.168945312 m 1
 144.508789062 555.831054688 l 1
 256.170898438 555.831054688 l 1
 256.170898438 444.168945312 l 1
 144.508789062 444.168945312 l 1
477.829101562 444.168945312 m 1
 477.829101562 555.831054688 l 1
 589.491210938 555.831054688 l 1
 589.491210938 444.168945312 l 1
 477.829101562 444.168945312 l 1
144.508789062 333.33984375 m 1
 144.508789062 444.168945312 l 1
 256.170898438 444.168945312 l 1
 256.170898438 333.33984375 l 1
 144.508789062 333.33984375 l 1
477.829101562 333.33984375 m 1
 477.829101562 444.168945312 l 1
 589.491210938 444.168945312 l 1
 589.491210938 333.33984375 l 1
 477.829101562 333.33984375 l 1
144.508789062 222.510742188 m 1
 144.508789062 333.33984375 l 1
 256.170898438 333.33984375 l 1
 256.170898438 222.510742188 l 1
 144.508789062 222.510742188 l 1
256.170898438 222.510742188 m 1
 256.170898438 333.33984375 l 1
 367 333.33984375 l 1
 367 222.510742188 l 1
 256.170898438 222.510742188 l 1
367 222.510742188 m 1
 367 333.33984375 l 1
 477.829101562 333.33984375 l 1
 477.829101562 222.510742188 l 1
 367 222.510742188 l 1
144.508789062 110.848632812 m 1
 144.508789062 222.510742188 l 1
 256.170898438 222.510742188 l 1
 256.170898438 110.848632812 l 1
 144.508789062 110.848632812 l 1
477.829101562 110.848632812 m 1
 477.829101562 222.510742188 l 1
 589.491210938 222.510742188 l 1
 589.491210938 110.848632812 l 1
 477.829101562 110.848632812 l 1
144.508789062 0.01953125 m 1
 144.508789062 110.848632812 l 1
 256.170898438 110.848632812 l 1
 256.170898438 0.01953125 l 1
 144.508789062 0.01953125 l 1
256.170898438 0.01953125 m 1
 256.170898438 110.848632812 l 1
 367 110.848632812 l 1
 367 0.01953125 l 1
 256.170898438 0.01953125 l 1
367 0.01953125 m 1
 367 110.848632812 l 1
 477.829101562 110.848632812 l 1
 477.829101562 0.01953125 l 1
 367 0.01953125 l 1
EndSplineSet
EndChar

StartChar: c
Encoding: 99 99 28
Width: 734
Flags: HW
LayerCount: 2
Fore
SplineSet
367 555.831054688 m 1
 367 666.66015625 l 1
 477.829101562 666.66015625 l 1
 477.829101562 555.831054688 l 1
 367 555.831054688 l 1
477.829101562 555.831054688 m 1
 477.829101562 666.66015625 l 1
 589.491210938 666.66015625 l 1
 589.491210938 555.831054688 l 1
 477.829101562 555.831054688 l 1
256.170898438 444.168945312 m 1
 256.170898438 555.831054688 l 1
 367 555.831054688 l 1
 367 444.168945312 l 1
 256.170898438 444.168945312 l 1
144.508789062 333.33984375 m 1
 144.508789062 444.168945312 l 1
 256.170898438 444.168945312 l 1
 256.170898438 333.33984375 l 1
 144.508789062 333.33984375 l 1
144.508789062 222.510742188 m 1
 144.508789062 333.33984375 l 1
 256.170898438 333.33984375 l 1
 256.170898438 222.510742188 l 1
 144.508789062 222.510742188 l 1
144.508789062 110.848632812 m 1
 144.508789062 222.510742188 l 1
 256.170898438 222.510742188 l 1
 256.170898438 110.848632812 l 1
 144.508789062 110.848632812 l 1
256.170898438 0.01953125 m 1
 256.170898438 110.848632812 l 1
 367 110.848632812 l 1
 367 0.01953125 l 1
 256.170898438 0.01953125 l 1
367 0.01953125 m 1
 367 110.848632812 l 1
 477.829101562 110.848632812 l 1
 477.829101562 0.01953125 l 1
 367 0.01953125 l 1
477.829101562 0.01953125 m 1
 477.829101562 110.848632812 l 1
 589.491210938 110.848632812 l 1
 589.491210938 0.01953125 l 1
 477.829101562 0.01953125 l 1
EndSplineSet
EndChar

StartChar: d
Encoding: 100 100 29
Width: 734
Flags: HW
LayerCount: 2
Fore
SplineSet
144.508789062 555.831054688 m 5
 144.508789062 666.66015625 l 5
 256.170898438 666.66015625 l 5
 256.170898438 555.831054688 l 5
 144.508789062 555.831054688 l 5
256.170898438 555.831054688 m 5
 256.170898438 666.66015625 l 5
 367 666.66015625 l 5
 367 555.831054688 l 5
 256.170898438 555.831054688 l 5
367 555.831054688 m 5
 367 666.66015625 l 5
 477.829101562 666.66015625 l 5
 477.829101562 555.831054688 l 5
 367 555.831054688 l 5
144.508789062 444.168945312 m 5
 144.508789062 555.831054688 l 5
 256.170898438 555.831054688 l 5
 256.170898438 444.168945312 l 5
 144.508789062 444.168945312 l 5
477.829101562 444.168945312 m 5
 477.829101562 555.831054688 l 5
 589.491210938 555.831054688 l 5
 589.491210938 444.168945312 l 5
 477.829101562 444.168945312 l 5
144.508789062 333.33984375 m 5
 144.508789062 444.168945312 l 5
 256.170898438 444.168945312 l 5
 256.170898438 333.33984375 l 5
 144.508789062 333.33984375 l 5
477.829101562 333.33984375 m 5
 477.829101562 444.168945312 l 5
 589.491210938 444.168945312 l 5
 589.491210938 333.33984375 l 5
 477.829101562 333.33984375 l 5
144.508789062 222.510742188 m 5
 144.508789062 333.33984375 l 5
 256.170898438 333.33984375 l 5
 256.170898438 222.510742188 l 5
 144.508789062 222.510742188 l 5
477.829101562 222.510742188 m 5
 477.829101562 333.33984375 l 5
 589.491210938 333.33984375 l 5
 589.491210938 222.510742188 l 5
 477.829101562 222.510742188 l 5
144.508789062 110.848632812 m 5
 144.508789062 222.510742188 l 5
 256.170898438 222.510742188 l 5
 256.170898438 110.848632812 l 5
 144.508789062 110.848632812 l 5
477.829101562 110.848632812 m 5
 477.829101562 222.510742188 l 5
 589.491210938 222.510742188 l 5
 589.491210938 110.848632812 l 5
 477.829101562 110.848632812 l 5
144.508789062 0.01953125 m 5
 144.508789062 110.848632812 l 5
 256.170898438 110.848632812 l 5
 256.170898438 0.01953125 l 5
 144.508789062 0.01953125 l 5
256.170898438 0.01953125 m 5
 256.170898438 110.848632812 l 5
 367 110.848632812 l 5
 367 0.01953125 l 5
 256.170898438 0.01953125 l 5
367 0.01953125 m 5
 367 110.848632812 l 5
 477.829101562 110.848632812 l 5
 477.829101562 0.01953125 l 5
 367 0.01953125 l 5
EndSplineSet
EndChar

StartChar: e
Encoding: 101 101 30
Width: 734
Flags: HW
LayerCount: 2
Fore
SplineSet
144.508789062 555.831054688 m 5
 144.508789062 666.66015625 l 5
 256.170898438 666.66015625 l 5
 256.170898438 555.831054688 l 5
 144.508789062 555.831054688 l 5
256.170898438 555.831054688 m 5
 256.170898438 666.66015625 l 5
 367 666.66015625 l 5
 367 555.831054688 l 5
 256.170898438 555.831054688 l 5
367 555.831054688 m 5
 367 666.66015625 l 5
 477.829101562 666.66015625 l 5
 477.829101562 555.831054688 l 5
 367 555.831054688 l 5
144.508789062 444.168945312 m 5
 144.508789062 555.831054688 l 5
 256.170898438 555.831054688 l 5
 256.170898438 444.168945312 l 5
 144.508789062 444.168945312 l 5
144.508789062 333.33984375 m 5
 144.508789062 444.168945312 l 5
 256.170898438 444.168945312 l 5
 256.170898438 333.33984375 l 5
 144.508789062 333.33984375 l 5
144.508789062 222.510742188 m 5
 144.508789062 333.33984375 l 5
 256.170898438 333.33984375 l 5
 256.170898438 222.510742188 l 5
 144.508789062 222.510742188 l 5
256.170898438 222.510742188 m 5
 256.170898438 333.33984375 l 5
 367 333.33984375 l 5
 367 222.510742188 l 5
 256.170898438 222.510742188 l 5
367 222.510742188 m 5
 367 333.33984375 l 5
 477.829101562 333.33984375 l 5
 477.829101562 222.510742188 l 5
 367 222.510742188 l 5
144.508789062 110.848632812 m 5
 144.508789062 222.510742188 l 5
 256.170898438 222.510742188 l 5
 256.170898438 110.848632812 l 5
 144.508789062 110.848632812 l 5
144.508789062 0.01953125 m 5
 144.508789062 110.848632812 l 5
 256.170898438 110.848632812 l 5
 256.170898438 0.01953125 l 5
 144.508789062 0.01953125 l 5
256.170898438 0.01953125 m 5
 256.170898438 110.848632812 l 5
 367 110.848632812 l 5
 367 0.01953125 l 5
 256.170898438 0.01953125 l 5
367 0.01953125 m 5
 367 110.848632812 l 5
 477.829101562 110.848632812 l 5
 477.829101562 0.01953125 l 5
 367 0.01953125 l 5
477.829101562 0.01953125 m 5
 477.829101562 110.848632812 l 5
 589.491210938 110.848632812 l 5
 589.491210938 0.01953125 l 5
 477.829101562 0.01953125 l 5
EndSplineSet
EndChar

StartChar: f
Encoding: 102 102 31
Width: 734
Flags: HW
LayerCount: 2
Fore
SplineSet
256.170898438 555.831054688 m 5
 256.170898438 666.66015625 l 5
 367 666.66015625 l 5
 367 555.831054688 l 5
 256.170898438 555.831054688 l 5
367 555.831054688 m 5
 367 666.66015625 l 5
 477.829101562 666.66015625 l 5
 477.829101562 555.831054688 l 5
 367 555.831054688 l 5
477.829101562 555.831054688 m 5
 477.829101562 666.66015625 l 5
 589.491210938 666.66015625 l 5
 589.491210938 555.831054688 l 5
 477.829101562 555.831054688 l 5
144.508789062 444.168945312 m 5
 144.508789062 555.831054688 l 5
 256.170898438 555.831054688 l 5
 256.170898438 444.168945312 l 5
 144.508789062 444.168945312 l 5
144.508789062 333.33984375 m 5
 144.508789062 444.168945312 l 5
 256.170898438 444.168945312 l 5
 256.170898438 333.33984375 l 5
 144.508789062 333.33984375 l 5
256.170898438 333.33984375 m 5
 256.170898438 444.168945312 l 5
 367 444.168945312 l 5
 367 333.33984375 l 5
 256.170898438 333.33984375 l 5
367 333.33984375 m 5
 367 444.168945312 l 5
 477.829101562 444.168945312 l 5
 477.829101562 333.33984375 l 5
 367 333.33984375 l 5
144.508789062 222.510742188 m 5
 144.508789062 333.33984375 l 5
 256.170898438 333.33984375 l 5
 256.170898438 222.510742188 l 5
 144.508789062 222.510742188 l 5
144.508789062 110.848632812 m 5
 144.508789062 222.510742188 l 5
 256.170898438 222.510742188 l 5
 256.170898438 110.848632812 l 5
 144.508789062 110.848632812 l 5
144.508789062 0.01953125 m 5
 144.508789062 110.848632812 l 5
 256.170898438 110.848632812 l 5
 256.170898438 0.01953125 l 5
 144.508789062 0.01953125 l 5
EndSplineSet
EndChar

StartChar: g
Encoding: 103 103 32
Width: 734
Flags: HW
LayerCount: 2
Fore
SplineSet
256.170898438 555.831054688 m 5
 256.170898438 666.66015625 l 5
 367 666.66015625 l 5
 367 555.831054688 l 5
 256.170898438 555.831054688 l 5
367 555.831054688 m 5
 367 666.66015625 l 5
 477.829101562 666.66015625 l 5
 477.829101562 555.831054688 l 5
 367 555.831054688 l 5
477.829101562 555.831054688 m 5
 477.829101562 666.66015625 l 5
 589.491210938 666.66015625 l 5
 589.491210938 555.831054688 l 5
 477.829101562 555.831054688 l 5
144.508789062 444.168945312 m 5
 144.508789062 555.831054688 l 5
 256.170898438 555.831054688 l 5
 256.170898438 444.168945312 l 5
 144.508789062 444.168945312 l 5
144.508789062 333.33984375 m 5
 144.508789062 444.168945312 l 5
 256.170898438 444.168945312 l 5
 256.170898438 333.33984375 l 5
 144.508789062 333.33984375 l 5
144.508789062 222.510742188 m 5
 144.508789062 333.33984375 l 5
 256.170898438 333.33984375 l 5
 256.170898438 222.510742188 l 5
 144.508789062 222.510742188 l 5
367 222.510742188 m 5
 367 333.33984375 l 5
 477.829101562 333.33984375 l 5
 477.829101562 222.510742188 l 5
 367 222.510742188 l 5
477.829101562 222.510742188 m 5
 477.829101562 333.33984375 l 5
 589.491210938 333.33984375 l 5
 589.491210938 222.510742188 l 5
 477.829101562 222.510742188 l 5
144.508789062 110.848632812 m 5
 144.508789062 222.510742188 l 5
 256.170898438 222.510742188 l 5
 256.170898438 110.848632812 l 5
 144.508789062 110.848632812 l 5
477.829101562 110.848632812 m 5
 477.829101562 222.510742188 l 5
 589.491210938 222.510742188 l 5
 589.491210938 110.848632812 l 5
 477.829101562 110.848632812 l 5
256.170898438 0.01953125 m 5
 256.170898438 110.848632812 l 5
 367 110.848632812 l 5
 367 0.01953125 l 5
 256.170898438 0.01953125 l 5
367 0.01953125 m 5
 367 110.848632812 l 5
 477.829101562 110.848632812 l 5
 477.829101562 0.01953125 l 5
 367 0.01953125 l 5
477.829101562 0.01953125 m 5
 477.829101562 110.848632812 l 5
 589.491210938 110.848632812 l 5
 589.491210938 0.01953125 l 5
 477.829101562 0.01953125 l 5
EndSplineSet
EndChar

StartChar: h
Encoding: 104 104 33
Width: 734
Flags: HW
LayerCount: 2
Fore
SplineSet
144.508789062 555.831054688 m 5
 144.508789062 666.66015625 l 5
 256.170898438 666.66015625 l 5
 256.170898438 555.831054688 l 5
 144.508789062 555.831054688 l 5
477.829101562 555.831054688 m 5
 477.829101562 666.66015625 l 5
 589.491210938 666.66015625 l 5
 589.491210938 555.831054688 l 5
 477.829101562 555.831054688 l 5
144.508789062 444.168945312 m 5
 144.508789062 555.831054688 l 5
 256.170898438 555.831054688 l 5
 256.170898438 444.168945312 l 5
 144.508789062 444.168945312 l 5
477.829101562 444.168945312 m 5
 477.829101562 555.831054688 l 5
 589.491210938 555.831054688 l 5
 589.491210938 444.168945312 l 5
 477.829101562 444.168945312 l 5
144.508789062 333.33984375 m 5
 144.508789062 444.168945312 l 5
 256.170898438 444.168945312 l 5
 256.170898438 333.33984375 l 5
 144.508789062 333.33984375 l 5
477.829101562 333.33984375 m 5
 477.829101562 444.168945312 l 5
 589.491210938 444.168945312 l 5
 589.491210938 333.33984375 l 5
 477.829101562 333.33984375 l 5
144.508789062 222.510742188 m 5
 144.508789062 333.33984375 l 5
 256.170898438 333.33984375 l 5
 256.170898438 222.510742188 l 5
 144.508789062 222.510742188 l 5
256.170898438 222.510742188 m 5
 256.170898438 333.33984375 l 5
 367 333.33984375 l 5
 367 222.510742188 l 5
 256.170898438 222.510742188 l 5
367 222.510742188 m 5
 367 333.33984375 l 5
 477.829101562 333.33984375 l 5
 477.829101562 222.510742188 l 5
 367 222.510742188 l 5
477.829101562 222.510742188 m 5
 477.829101562 333.33984375 l 5
 589.491210938 333.33984375 l 5
 589.491210938 222.510742188 l 5
 477.829101562 222.510742188 l 5
144.508789062 110.848632812 m 5
 144.508789062 222.510742188 l 5
 256.170898438 222.510742188 l 5
 256.170898438 110.848632812 l 5
 144.508789062 110.848632812 l 5
477.829101562 110.848632812 m 5
 477.829101562 222.510742188 l 5
 589.491210938 222.510742188 l 5
 589.491210938 110.848632812 l 5
 477.829101562 110.848632812 l 5
144.508789062 0.01953125 m 5
 144.508789062 110.848632812 l 5
 256.170898438 110.848632812 l 5
 256.170898438 0.01953125 l 5
 144.508789062 0.01953125 l 5
477.829101562 0.01953125 m 5
 477.829101562 110.848632812 l 5
 589.491210938 110.848632812 l 5
 589.491210938 0.01953125 l 5
 477.829101562 0.01953125 l 5
EndSplineSet
EndChar

StartChar: i
Encoding: 105 105 34
Width: 734
Flags: HW
LayerCount: 2
Fore
SplineSet
144.508789062 555.831054688 m 5
 144.508789062 666.66015625 l 5
 256.170898438 666.66015625 l 5
 256.170898438 555.831054688 l 5
 144.508789062 555.831054688 l 5
256.170898438 555.831054688 m 5
 256.170898438 666.66015625 l 5
 367 666.66015625 l 5
 367 555.831054688 l 5
 256.170898438 555.831054688 l 5
367 555.831054688 m 5
 367 666.66015625 l 5
 477.829101562 666.66015625 l 5
 477.829101562 555.831054688 l 5
 367 555.831054688 l 5
477.829101562 555.831054688 m 5
 477.829101562 666.66015625 l 5
 589.491210938 666.66015625 l 5
 589.491210938 555.831054688 l 5
 477.829101562 555.831054688 l 5
256.170898438 444.168945312 m 5
 256.170898438 555.831054688 l 5
 367 555.831054688 l 5
 367 444.168945312 l 5
 256.170898438 444.168945312 l 5
256.170898438 333.33984375 m 5
 256.170898438 444.168945312 l 5
 367 444.168945312 l 5
 367 333.33984375 l 5
 256.170898438 333.33984375 l 5
256.170898438 222.510742188 m 5
 256.170898438 333.33984375 l 5
 367 333.33984375 l 5
 367 222.510742188 l 5
 256.170898438 222.510742188 l 5
256.170898438 110.848632812 m 5
 256.170898438 222.510742188 l 5
 367 222.510742188 l 5
 367 110.848632812 l 5
 256.170898438 110.848632812 l 5
144.508789062 0.01953125 m 5
 144.508789062 110.848632812 l 5
 256.170898438 110.848632812 l 5
 256.170898438 0.01953125 l 5
 144.508789062 0.01953125 l 5
256.170898438 0.01953125 m 5
 256.170898438 110.848632812 l 5
 367 110.848632812 l 5
 367 0.01953125 l 5
 256.170898438 0.01953125 l 5
367 0.01953125 m 5
 367 110.848632812 l 5
 477.829101562 110.848632812 l 5
 477.829101562 0.01953125 l 5
 367 0.01953125 l 5
477.829101562 0.01953125 m 5
 477.829101562 110.848632812 l 5
 589.491210938 110.848632812 l 5
 589.491210938 0.01953125 l 5
 477.829101562 0.01953125 l 5
EndSplineSet
EndChar

StartChar: j
Encoding: 106 106 35
Width: 734
Flags: HW
LayerCount: 2
Fore
SplineSet
256.170898438 555.831054688 m 1
 256.170898438 666.66015625 l 1
 367 666.66015625 l 1
 367 555.831054688 l 1
 256.170898438 555.831054688 l 1
367 555.831054688 m 1
 367 666.66015625 l 1
 477.829101562 666.66015625 l 1
 477.829101562 555.831054688 l 1
 367 555.831054688 l 1
477.829101562 555.831054688 m 1
 477.829101562 666.66015625 l 1
 589.491210938 666.66015625 l 1
 589.491210938 555.831054688 l 1
 477.829101562 555.831054688 l 1
367 444.168945312 m 1
 367 555.831054688 l 1
 477.829101562 555.831054688 l 1
 477.829101562 444.168945312 l 1
 367 444.168945312 l 1
367 333.33984375 m 1
 367 444.168945312 l 1
 477.829101562 444.168945312 l 1
 477.829101562 333.33984375 l 1
 367 333.33984375 l 1
367 222.510742188 m 1
 367 333.33984375 l 1
 477.829101562 333.33984375 l 1
 477.829101562 222.510742188 l 1
 367 222.510742188 l 1
144.508789062 110.848632812 m 1
 144.508789062 222.510742188 l 1
 256.170898438 222.510742188 l 1
 256.170898438 110.848632812 l 1
 144.508789062 110.848632812 l 1
367 110.848632812 m 1
 367 222.510742188 l 1
 477.829101562 222.510742188 l 1
 477.829101562 110.848632812 l 1
 367 110.848632812 l 1
144.508789062 0.01953125 m 1
 144.508789062 110.848632812 l 1
 256.170898438 110.848632812 l 1
 256.170898438 0.01953125 l 1
 144.508789062 0.01953125 l 1
256.170898438 0.01953125 m 1
 256.170898438 110.848632812 l 1
 367 110.848632812 l 1
 367 0.01953125 l 1
 256.170898438 0.01953125 l 1
367 0.01953125 m 1
 367 110.848632812 l 1
 477.829101562 110.848632812 l 1
 477.829101562 0.01953125 l 1
 367 0.01953125 l 1
EndSplineSet
EndChar

StartChar: k
Encoding: 107 107 36
Width: 734
Flags: HW
LayerCount: 2
Fore
SplineSet
144.508789062 555.831054688 m 5
 144.508789062 666.66015625 l 5
 256.170898438 666.66015625 l 5
 256.170898438 555.831054688 l 5
 144.508789062 555.831054688 l 5
477.829101562 555.831054688 m 5
 477.829101562 666.66015625 l 5
 589.491210938 666.66015625 l 5
 589.491210938 555.831054688 l 5
 477.829101562 555.831054688 l 5
144.508789062 444.168945312 m 5
 144.508789062 555.831054688 l 5
 256.170898438 555.831054688 l 5
 256.170898438 444.168945312 l 5
 144.508789062 444.168945312 l 5
477.829101562 444.168945312 m 5
 477.829101562 555.831054688 l 5
 589.491210938 555.831054688 l 5
 589.491210938 444.168945312 l 5
 477.829101562 444.168945312 l 5
144.508789062 333.33984375 m 5
 144.508789062 444.168945312 l 5
 256.170898438 444.168945312 l 5
 256.170898438 333.33984375 l 5
 144.508789062 333.33984375 l 5
367 333.33984375 m 5
 367 444.168945312 l 5
 477.829101562 444.168945312 l 5
 477.829101562 333.33984375 l 5
 367 333.33984375 l 5
144.508789062 222.510742188 m 5
 144.508789062 333.33984375 l 5
 256.170898438 333.33984375 l 5
 256.170898438 222.510742188 l 5
 144.508789062 222.510742188 l 5
256.170898438 222.510742188 m 5
 256.170898438 333.33984375 l 5
 367 333.33984375 l 5
 367 222.510742188 l 5
 256.170898438 222.510742188 l 5
144.508789062 110.848632812 m 5
 144.508789062 222.510742188 l 5
 256.170898438 222.510742188 l 5
 256.170898438 110.848632812 l 5
 144.508789062 110.848632812 l 5
367 110.848632812 m 5
 367 222.510742188 l 5
 477.829101562 222.510742188 l 5
 477.829101562 110.848632812 l 5
 367 110.848632812 l 5
144.508789062 0.01953125 m 5
 144.508789062 110.848632812 l 5
 256.170898438 110.848632812 l 5
 256.170898438 0.01953125 l 5
 144.508789062 0.01953125 l 5
477.829101562 0.01953125 m 5
 477.829101562 110.848632812 l 5
 589.491210938 110.848632812 l 5
 589.491210938 0.01953125 l 5
 477.829101562 0.01953125 l 5
EndSplineSet
EndChar

StartChar: l
Encoding: 108 108 37
Width: 734
Flags: HW
LayerCount: 2
Fore
SplineSet
144.508789062 555.831054688 m 5
 144.508789062 666.66015625 l 5
 256.170898438 666.66015625 l 5
 256.170898438 555.831054688 l 5
 144.508789062 555.831054688 l 5
144.508789062 444.168945312 m 5
 144.508789062 555.831054688 l 5
 256.170898438 555.831054688 l 5
 256.170898438 444.168945312 l 5
 144.508789062 444.168945312 l 5
144.508789062 333.33984375 m 5
 144.508789062 444.168945312 l 5
 256.170898438 444.168945312 l 5
 256.170898438 333.33984375 l 5
 144.508789062 333.33984375 l 5
144.508789062 222.510742188 m 5
 144.508789062 333.33984375 l 5
 256.170898438 333.33984375 l 5
 256.170898438 222.510742188 l 5
 144.508789062 222.510742188 l 5
144.508789062 110.848632812 m 5
 144.508789062 222.510742188 l 5
 256.170898438 222.510742188 l 5
 256.170898438 110.848632812 l 5
 144.508789062 110.848632812 l 5
256.170898438 0.01953125 m 5
 256.170898438 110.848632812 l 5
 367 110.848632812 l 5
 367 0.01953125 l 5
 256.170898438 0.01953125 l 5
367 0.01953125 m 5
 367 110.848632812 l 5
 477.829101562 110.848632812 l 5
 477.829101562 0.01953125 l 5
 367 0.01953125 l 5
477.829101562 0.01953125 m 5
 477.829101562 110.848632812 l 5
 589.491210938 110.848632812 l 5
 589.491210938 0.01953125 l 5
 477.829101562 0.01953125 l 5
EndSplineSet
EndChar

StartChar: m
Encoding: 109 109 38
Width: 734
Flags: HW
LayerCount: 2
Fore
SplineSet
144.508789062 555.831054688 m 5
 144.508789062 666.66015625 l 5
 256.170898438 666.66015625 l 5
 256.170898438 555.831054688 l 5
 144.508789062 555.831054688 l 5
367 555.831054688 m 5
 367 666.66015625 l 5
 477.829101562 666.66015625 l 5
 477.829101562 555.831054688 l 5
 367 555.831054688 l 5
477.829101562 555.831054688 m 5
 477.829101562 666.66015625 l 5
 589.491210938 666.66015625 l 5
 589.491210938 555.831054688 l 5
 477.829101562 555.831054688 l 5
144.508789062 444.168945312 m 5
 144.508789062 555.831054688 l 5
 256.170898438 555.831054688 l 5
 256.170898438 444.168945312 l 5
 144.508789062 444.168945312 l 5
256.170898438 444.168945312 m 5
 256.170898438 555.831054688 l 5
 367 555.831054688 l 5
 367 444.168945312 l 5
 256.170898438 444.168945312 l 5
367 444.168945312 m 5
 367 555.831054688 l 5
 477.829101562 555.831054688 l 5
 477.829101562 444.168945312 l 5
 367 444.168945312 l 5
477.829101562 444.168945312 m 5
 477.829101562 555.831054688 l 5
 589.491210938 555.831054688 l 5
 589.491210938 444.168945312 l 5
 477.829101562 444.168945312 l 5
144.508789062 333.33984375 m 5
 144.508789062 444.168945312 l 5
 256.170898438 444.168945312 l 5
 256.170898438 333.33984375 l 5
 144.508789062 333.33984375 l 5
256.170898438 333.33984375 m 5
 256.170898438 444.168945312 l 5
 367 444.168945312 l 5
 367 333.33984375 l 5
 256.170898438 333.33984375 l 5
477.829101562 333.33984375 m 5
 477.829101562 444.168945312 l 5
 589.491210938 444.168945312 l 5
 589.491210938 333.33984375 l 5
 477.829101562 333.33984375 l 5
144.508789062 222.510742188 m 5
 144.508789062 333.33984375 l 5
 256.170898438 333.33984375 l 5
 256.170898438 222.510742188 l 5
 144.508789062 222.510742188 l 5
477.829101562 222.510742188 m 5
 477.829101562 333.33984375 l 5
 589.491210938 333.33984375 l 5
 589.491210938 222.510742188 l 5
 477.829101562 222.510742188 l 5
144.508789062 110.848632812 m 5
 144.508789062 222.510742188 l 5
 256.170898438 222.510742188 l 5
 256.170898438 110.848632812 l 5
 144.508789062 110.848632812 l 5
477.829101562 110.848632812 m 5
 477.829101562 222.510742188 l 5
 589.491210938 222.510742188 l 5
 589.491210938 110.848632812 l 5
 477.829101562 110.848632812 l 5
144.508789062 0.01953125 m 5
 144.508789062 110.848632812 l 5
 256.170898438 110.848632812 l 5
 256.170898438 0.01953125 l 5
 144.508789062 0.01953125 l 5
477.829101562 0.01953125 m 5
 477.829101562 110.848632812 l 5
 589.491210938 110.848632812 l 5
 589.491210938 0.01953125 l 5
 477.829101562 0.01953125 l 5
EndSplineSet
EndChar

StartChar: n
Encoding: 110 110 39
Width: 734
Flags: HW
LayerCount: 2
Fore
SplineSet
144.508789062 555.831054688 m 5
 144.508789062 666.66015625 l 5
 256.170898438 666.66015625 l 5
 256.170898438 555.831054688 l 5
 144.508789062 555.831054688 l 5
256.170898438 555.831054688 m 5
 256.170898438 666.66015625 l 5
 367 666.66015625 l 5
 367 555.831054688 l 5
 256.170898438 555.831054688 l 5
477.829101562 555.831054688 m 5
 477.829101562 666.66015625 l 5
 589.491210938 666.66015625 l 5
 589.491210938 555.831054688 l 5
 477.829101562 555.831054688 l 5
144.508789062 444.168945312 m 5
 144.508789062 555.831054688 l 5
 256.170898438 555.831054688 l 5
 256.170898438 444.168945312 l 5
 144.508789062 444.168945312 l 5
256.170898438 444.168945312 m 5
 256.170898438 555.831054688 l 5
 367 555.831054688 l 5
 367 444.168945312 l 5
 256.170898438 444.168945312 l 5
477.829101562 444.168945312 m 5
 477.829101562 555.831054688 l 5
 589.491210938 555.831054688 l 5
 589.491210938 444.168945312 l 5
 477.829101562 444.168945312 l 5
144.508789062 333.33984375 m 5
 144.508789062 444.168945312 l 5
 256.170898438 444.168945312 l 5
 256.170898438 333.33984375 l 5
 144.508789062 333.33984375 l 5
367 333.33984375 m 5
 367 444.168945312 l 5
 477.829101562 444.168945312 l 5
 477.829101562 333.33984375 l 5
 367 333.33984375 l 5
477.829101562 333.33984375 m 5
 477.829101562 444.168945312 l 5
 589.491210938 444.168945312 l 5
 589.491210938 333.33984375 l 5
 477.829101562 333.33984375 l 5
144.508789062 222.510742188 m 5
 144.508789062 333.33984375 l 5
 256.170898438 333.33984375 l 5
 256.170898438 222.510742188 l 5
 144.508789062 222.510742188 l 5
367 222.510742188 m 5
 367 333.33984375 l 5
 477.829101562 333.33984375 l 5
 477.829101562 222.510742188 l 5
 367 222.510742188 l 5
477.829101562 222.510742188 m 5
 477.829101562 333.33984375 l 5
 589.491210938 333.33984375 l 5
 589.491210938 222.510742188 l 5
 477.829101562 222.510742188 l 5
144.508789062 110.848632812 m 5
 144.508789062 222.510742188 l 5
 256.170898438 222.510742188 l 5
 256.170898438 110.848632812 l 5
 144.508789062 110.848632812 l 5
477.829101562 110.848632812 m 5
 477.829101562 222.510742188 l 5
 589.491210938 222.510742188 l 5
 589.491210938 110.848632812 l 5
 477.829101562 110.848632812 l 5
144.508789062 0.01953125 m 5
 144.508789062 110.848632812 l 5
 256.170898438 110.848632812 l 5
 256.170898438 0.01953125 l 5
 144.508789062 0.01953125 l 5
477.829101562 0.01953125 m 5
 477.829101562 110.848632812 l 5
 589.491210938 110.848632812 l 5
 589.491210938 0.01953125 l 5
 477.829101562 0.01953125 l 5
EndSplineSet
EndChar

StartChar: o
Encoding: 111 111 40
Width: 734
Flags: HW
LayerCount: 2
Fore
SplineSet
256.170898438 555.831054688 m 5
 256.170898438 666.66015625 l 5
 367 666.66015625 l 5
 367 555.831054688 l 5
 256.170898438 555.831054688 l 5
367 555.831054688 m 5
 367 666.66015625 l 5
 477.829101562 666.66015625 l 5
 477.829101562 555.831054688 l 5
 367 555.831054688 l 5
477.829101562 555.831054688 m 5
 477.829101562 666.66015625 l 5
 589.491210938 666.66015625 l 5
 589.491210938 555.831054688 l 5
 477.829101562 555.831054688 l 5
144.508789062 444.168945312 m 5
 144.508789062 555.831054688 l 5
 256.170898438 555.831054688 l 5
 256.170898438 444.168945312 l 5
 144.508789062 444.168945312 l 5
477.829101562 444.168945312 m 5
 477.829101562 555.831054688 l 5
 589.491210938 555.831054688 l 5
 589.491210938 444.168945312 l 5
 477.829101562 444.168945312 l 5
144.508789062 333.33984375 m 5
 144.508789062 444.168945312 l 5
 256.170898438 444.168945312 l 5
 256.170898438 333.33984375 l 5
 144.508789062 333.33984375 l 5
477.829101562 333.33984375 m 5
 477.829101562 444.168945312 l 5
 589.491210938 444.168945312 l 5
 589.491210938 333.33984375 l 5
 477.829101562 333.33984375 l 5
144.508789062 222.510742188 m 5
 144.508789062 333.33984375 l 5
 256.170898438 333.33984375 l 5
 256.170898438 222.510742188 l 5
 144.508789062 222.510742188 l 5
477.829101562 222.510742188 m 5
 477.829101562 333.33984375 l 5
 589.491210938 333.33984375 l 5
 589.491210938 222.510742188 l 5
 477.829101562 222.510742188 l 5
144.508789062 110.848632812 m 5
 144.508789062 222.510742188 l 5
 256.170898438 222.510742188 l 5
 256.170898438 110.848632812 l 5
 144.508789062 110.848632812 l 5
477.829101562 110.848632812 m 5
 477.829101562 222.510742188 l 5
 589.491210938 222.510742188 l 5
 589.491210938 110.848632812 l 5
 477.829101562 110.848632812 l 5
144.508789062 0.01953125 m 5
 144.508789062 110.848632812 l 5
 256.170898438 110.848632812 l 5
 256.170898438 0.01953125 l 5
 144.508789062 0.01953125 l 5
256.170898438 0.01953125 m 5
 256.170898438 110.848632812 l 5
 367 110.848632812 l 5
 367 0.01953125 l 5
 256.170898438 0.01953125 l 5
367 0.01953125 m 5
 367 110.848632812 l 5
 477.829101562 110.848632812 l 5
 477.829101562 0.01953125 l 5
 367 0.01953125 l 5
EndSplineSet
EndChar

StartChar: p
Encoding: 112 112 41
Width: 734
Flags: HW
LayerCount: 2
Fore
SplineSet
144.508789062 555.831054688 m 1
 144.508789062 666.66015625 l 1
 256.170898438 666.66015625 l 1
 256.170898438 555.831054688 l 1
 144.508789062 555.831054688 l 1
256.170898438 555.831054688 m 1
 256.170898438 666.66015625 l 1
 367 666.66015625 l 1
 367 555.831054688 l 1
 256.170898438 555.831054688 l 1
367 555.831054688 m 1
 367 666.66015625 l 1
 477.829101562 666.66015625 l 1
 477.829101562 555.831054688 l 1
 367 555.831054688 l 1
144.508789062 444.168945312 m 1
 144.508789062 555.831054688 l 1
 256.170898438 555.831054688 l 1
 256.170898438 444.168945312 l 1
 144.508789062 444.168945312 l 1
477.829101562 444.168945312 m 1
 477.829101562 555.831054688 l 1
 589.491210938 555.831054688 l 1
 589.491210938 444.168945312 l 1
 477.829101562 444.168945312 l 1
144.508789062 333.33984375 m 1
 144.508789062 444.168945312 l 1
 256.170898438 444.168945312 l 1
 256.170898438 333.33984375 l 1
 144.508789062 333.33984375 l 1
256.170898438 333.33984375 m 1
 256.170898438 444.168945312 l 1
 367 444.168945312 l 1
 367 333.33984375 l 1
 256.170898438 333.33984375 l 1
367 333.33984375 m 1
 367 444.168945312 l 1
 477.829101562 444.168945312 l 1
 477.829101562 333.33984375 l 1
 367 333.33984375 l 1
477.829101562 333.33984375 m 1
 477.829101562 444.168945312 l 1
 589.491210938 444.168945312 l 1
 589.491210938 333.33984375 l 1
 477.829101562 333.33984375 l 1
144.508789062 222.510742188 m 1
 144.508789062 333.33984375 l 1
 256.170898438 333.33984375 l 1
 256.170898438 222.510742188 l 1
 144.508789062 222.510742188 l 1
144.508789062 110.848632812 m 1
 144.508789062 222.510742188 l 1
 256.170898438 222.510742188 l 1
 256.170898438 110.848632812 l 1
 144.508789062 110.848632812 l 1
144.508789062 0.01953125 m 1
 144.508789062 110.848632812 l 1
 256.170898438 110.848632812 l 1
 256.170898438 0.01953125 l 1
 144.508789062 0.01953125 l 1
EndSplineSet
EndChar

StartChar: q
Encoding: 113 113 42
Width: 734
Flags: HW
LayerCount: 2
Fore
SplineSet
144.508789062 555.831054688 m 5
 144.508789062 666.66015625 l 5
 256.170898438 666.66015625 l 5
 256.170898438 555.831054688 l 5
 144.508789062 555.831054688 l 5
256.170898438 555.831054688 m 5
 256.170898438 666.66015625 l 5
 367 666.66015625 l 5
 367 555.831054688 l 5
 256.170898438 555.831054688 l 5
367 555.831054688 m 5
 367 666.66015625 l 5
 477.829101562 666.66015625 l 5
 477.829101562 555.831054688 l 5
 367 555.831054688 l 5
144.508789062 444.168945312 m 5
 144.508789062 555.831054688 l 5
 256.170898438 555.831054688 l 5
 256.170898438 444.168945312 l 5
 144.508789062 444.168945312 l 5
477.829101562 444.168945312 m 5
 477.829101562 555.831054688 l 5
 589.491210938 555.831054688 l 5
 589.491210938 444.168945312 l 5
 477.829101562 444.168945312 l 5
144.508789062 333.33984375 m 5
 144.508789062 444.168945312 l 5
 256.170898438 444.168945312 l 5
 256.170898438 333.33984375 l 5
 144.508789062 333.33984375 l 5
477.829101562 333.33984375 m 5
 477.829101562 444.168945312 l 5
 589.491210938 444.168945312 l 5
 589.491210938 333.33984375 l 5
 477.829101562 333.33984375 l 5
144.508789062 222.510742188 m 5
 144.508789062 333.33984375 l 5
 256.170898438 333.33984375 l 5
 256.170898438 222.510742188 l 5
 144.508789062 222.510742188 l 5
477.829101562 222.510742188 m 5
 477.829101562 333.33984375 l 5
 589.491210938 333.33984375 l 5
 589.491210938 222.510742188 l 5
 477.829101562 222.510742188 l 5
144.508789062 110.848632812 m 5
 144.508789062 222.510742188 l 5
 256.170898438 222.510742188 l 5
 256.170898438 110.848632812 l 5
 144.508789062 110.848632812 l 5
367 110.848632812 m 5
 367 222.510742188 l 5
 477.829101562 222.510742188 l 5
 477.829101562 110.848632812 l 5
 367 110.848632812 l 5
477.829101562 110.848632812 m 5
 477.829101562 222.510742188 l 5
 589.491210938 222.510742188 l 5
 589.491210938 110.848632812 l 5
 477.829101562 110.848632812 l 5
256.170898438 0.01953125 m 5
 256.170898438 110.848632812 l 5
 367 110.848632812 l 5
 367 0.01953125 l 5
 256.170898438 0.01953125 l 5
367 0.01953125 m 5
 367 110.848632812 l 5
 477.829101562 110.848632812 l 5
 477.829101562 0.01953125 l 5
 367 0.01953125 l 5
477.829101562 0.01953125 m 5
 477.829101562 110.848632812 l 5
 589.491210938 110.848632812 l 5
 589.491210938 0.01953125 l 5
 477.829101562 0.01953125 l 5
EndSplineSet
EndChar

StartChar: r
Encoding: 114 114 43
Width: 734
Flags: HW
LayerCount: 2
Fore
SplineSet
144.508789062 555.831054688 m 5
 144.508789062 666.66015625 l 5
 256.170898438 666.66015625 l 5
 256.170898438 555.831054688 l 5
 144.508789062 555.831054688 l 5
256.170898438 555.831054688 m 5
 256.170898438 666.66015625 l 5
 367 666.66015625 l 5
 367 555.831054688 l 5
 256.170898438 555.831054688 l 5
367 555.831054688 m 5
 367 666.66015625 l 5
 477.829101562 666.66015625 l 5
 477.829101562 555.831054688 l 5
 367 555.831054688 l 5
144.508789062 444.168945312 m 5
 144.508789062 555.831054688 l 5
 256.170898438 555.831054688 l 5
 256.170898438 444.168945312 l 5
 144.508789062 444.168945312 l 5
477.829101562 444.168945312 m 5
 477.829101562 555.831054688 l 5
 589.491210938 555.831054688 l 5
 589.491210938 444.168945312 l 5
 477.829101562 444.168945312 l 5
144.508789062 333.33984375 m 5
 144.508789062 444.168945312 l 5
 256.170898438 444.168945312 l 5
 256.170898438 333.33984375 l 5
 144.508789062 333.33984375 l 5
477.829101562 333.33984375 m 5
 477.829101562 444.168945312 l 5
 589.491210938 444.168945312 l 5
 589.491210938 333.33984375 l 5
 477.829101562 333.33984375 l 5
144.508789062 222.510742188 m 5
 144.508789062 333.33984375 l 5
 256.170898438 333.33984375 l 5
 256.170898438 222.510742188 l 5
 144.508789062 222.510742188 l 5
256.170898438 222.510742188 m 5
 256.170898438 333.33984375 l 5
 367 333.33984375 l 5
 367 222.510742188 l 5
 256.170898438 222.510742188 l 5
367 222.510742188 m 5
 367 333.33984375 l 5
 477.829101562 333.33984375 l 5
 477.829101562 222.510742188 l 5
 367 222.510742188 l 5
144.508789062 110.848632812 m 5
 144.508789062 222.510742188 l 5
 256.170898438 222.510742188 l 5
 256.170898438 110.848632812 l 5
 144.508789062 110.848632812 l 5
477.829101562 110.848632812 m 5
 477.829101562 222.510742188 l 5
 589.491210938 222.510742188 l 5
 589.491210938 110.848632812 l 5
 477.829101562 110.848632812 l 5
144.508789062 0.01953125 m 5
 144.508789062 110.848632812 l 5
 256.170898438 110.848632812 l 5
 256.170898438 0.01953125 l 5
 144.508789062 0.01953125 l 5
477.829101562 0.01953125 m 5
 477.829101562 110.848632812 l 5
 589.491210938 110.848632812 l 5
 589.491210938 0.01953125 l 5
 477.829101562 0.01953125 l 5
EndSplineSet
EndChar

StartChar: s
Encoding: 115 115 44
Width: 734
Flags: HW
LayerCount: 2
Fore
SplineSet
256.170898438 555.831054688 m 5
 256.170898438 666.66015625 l 5
 367 666.66015625 l 5
 367 555.831054688 l 5
 256.170898438 555.831054688 l 5
367 555.831054688 m 5
 367 666.66015625 l 5
 477.829101562 666.66015625 l 5
 477.829101562 555.831054688 l 5
 367 555.831054688 l 5
477.829101562 555.831054688 m 5
 477.829101562 666.66015625 l 5
 589.491210938 666.66015625 l 5
 589.491210938 555.831054688 l 5
 477.829101562 555.831054688 l 5
144.508789062 444.168945312 m 5
 144.508789062 555.831054688 l 5
 256.170898438 555.831054688 l 5
 256.170898438 444.168945312 l 5
 144.508789062 444.168945312 l 5
144.508789062 333.33984375 m 5
 144.508789062 444.168945312 l 5
 256.170898438 444.168945312 l 5
 256.170898438 333.33984375 l 5
 144.508789062 333.33984375 l 5
256.170898438 333.33984375 m 5
 256.170898438 444.168945312 l 5
 367 444.168945312 l 5
 367 333.33984375 l 5
 256.170898438 333.33984375 l 5
367 333.33984375 m 5
 367 444.168945312 l 5
 477.829101562 444.168945312 l 5
 477.829101562 333.33984375 l 5
 367 333.33984375 l 5
477.829101562 222.510742188 m 5
 477.829101562 333.33984375 l 5
 589.491210938 333.33984375 l 5
 589.491210938 222.510742188 l 5
 477.829101562 222.510742188 l 5
477.829101562 110.848632812 m 5
 477.829101562 222.510742188 l 5
 589.491210938 222.510742188 l 5
 589.491210938 110.848632812 l 5
 477.829101562 110.848632812 l 5
144.508789062 0.01953125 m 5
 144.508789062 110.848632812 l 5
 256.170898438 110.848632812 l 5
 256.170898438 0.01953125 l 5
 144.508789062 0.01953125 l 5
256.170898438 0.01953125 m 5
 256.170898438 110.848632812 l 5
 367 110.848632812 l 5
 367 0.01953125 l 5
 256.170898438 0.01953125 l 5
367 0.01953125 m 5
 367 110.848632812 l 5
 477.829101562 110.848632812 l 5
 477.829101562 0.01953125 l 5
 367 0.01953125 l 5
EndSplineSet
EndChar

StartChar: t
Encoding: 116 116 45
Width: 734
Flags: HW
LayerCount: 2
Fore
SplineSet
144.508789062 555.831054688 m 5
 144.508789062 666.66015625 l 5
 256.170898438 666.66015625 l 5
 256.170898438 555.831054688 l 5
 144.508789062 555.831054688 l 5
256.170898438 555.831054688 m 5
 256.170898438 666.66015625 l 5
 367 666.66015625 l 5
 367 555.831054688 l 5
 256.170898438 555.831054688 l 5
367 555.831054688 m 5
 367 666.66015625 l 5
 477.829101562 666.66015625 l 5
 477.829101562 555.831054688 l 5
 367 555.831054688 l 5
477.829101562 555.831054688 m 5
 477.829101562 666.66015625 l 5
 589.491210938 666.66015625 l 5
 589.491210938 555.831054688 l 5
 477.829101562 555.831054688 l 5
256.170898438 444.168945312 m 5
 256.170898438 555.831054688 l 5
 367 555.831054688 l 5
 367 444.168945312 l 5
 256.170898438 444.168945312 l 5
256.170898438 333.33984375 m 5
 256.170898438 444.168945312 l 5
 367 444.168945312 l 5
 367 333.33984375 l 5
 256.170898438 333.33984375 l 5
256.170898438 222.510742188 m 5
 256.170898438 333.33984375 l 5
 367 333.33984375 l 5
 367 222.510742188 l 5
 256.170898438 222.510742188 l 5
256.170898438 110.848632812 m 5
 256.170898438 222.510742188 l 5
 367 222.510742188 l 5
 367 110.848632812 l 5
 256.170898438 110.848632812 l 5
256.170898438 0.01953125 m 5
 256.170898438 110.848632812 l 5
 367 110.848632812 l 5
 367 0.01953125 l 5
 256.170898438 0.01953125 l 5
EndSplineSet
EndChar

StartChar: u
Encoding: 117 117 46
Width: 734
Flags: HW
LayerCount: 2
Fore
SplineSet
144.508789062 555.831054688 m 5
 144.508789062 666.66015625 l 5
 256.170898438 666.66015625 l 5
 256.170898438 555.831054688 l 5
 144.508789062 555.831054688 l 5
477.829101562 555.831054688 m 5
 477.829101562 666.66015625 l 5
 589.491210938 666.66015625 l 5
 589.491210938 555.831054688 l 5
 477.829101562 555.831054688 l 5
144.508789062 444.168945312 m 5
 144.508789062 555.831054688 l 5
 256.170898438 555.831054688 l 5
 256.170898438 444.168945312 l 5
 144.508789062 444.168945312 l 5
477.829101562 444.168945312 m 5
 477.829101562 555.831054688 l 5
 589.491210938 555.831054688 l 5
 589.491210938 444.168945312 l 5
 477.829101562 444.168945312 l 5
144.508789062 333.33984375 m 5
 144.508789062 444.168945312 l 5
 256.170898438 444.168945312 l 5
 256.170898438 333.33984375 l 5
 144.508789062 333.33984375 l 5
477.829101562 333.33984375 m 5
 477.829101562 444.168945312 l 5
 589.491210938 444.168945312 l 5
 589.491210938 333.33984375 l 5
 477.829101562 333.33984375 l 5
144.508789062 222.510742188 m 5
 144.508789062 333.33984375 l 5
 256.170898438 333.33984375 l 5
 256.170898438 222.510742188 l 5
 144.508789062 222.510742188 l 5
477.829101562 222.510742188 m 5
 477.829101562 333.33984375 l 5
 589.491210938 333.33984375 l 5
 589.491210938 222.510742188 l 5
 477.829101562 222.510742188 l 5
144.508789062 110.848632812 m 5
 144.508789062 222.510742188 l 5
 256.170898438 222.510742188 l 5
 256.170898438 110.848632812 l 5
 144.508789062 110.848632812 l 5
477.829101562 110.848632812 m 5
 477.829101562 222.510742188 l 5
 589.491210938 222.510742188 l 5
 589.491210938 110.848632812 l 5
 477.829101562 110.848632812 l 5
256.170898438 0.01953125 m 5
 256.170898438 110.848632812 l 5
 367 110.848632812 l 5
 367 0.01953125 l 5
 256.170898438 0.01953125 l 5
367 0.01953125 m 5
 367 110.848632812 l 5
 477.829101562 110.848632812 l 5
 477.829101562 0.01953125 l 5
 367 0.01953125 l 5
477.829101562 0.01953125 m 5
 477.829101562 110.848632812 l 5
 589.491210938 110.848632812 l 5
 589.491210938 0.01953125 l 5
 477.829101562 0.01953125 l 5
EndSplineSet
EndChar

StartChar: v
Encoding: 118 118 47
Width: 734
Flags: HW
LayerCount: 2
Fore
SplineSet
144.508789062 555.831054688 m 5
 144.508789062 666.66015625 l 5
 256.170898438 666.66015625 l 5
 256.170898438 555.831054688 l 5
 144.508789062 555.831054688 l 5
477.829101562 555.831054688 m 5
 477.829101562 666.66015625 l 5
 589.491210938 666.66015625 l 5
 589.491210938 555.831054688 l 5
 477.829101562 555.831054688 l 5
144.508789062 444.168945312 m 5
 144.508789062 555.831054688 l 5
 256.170898438 555.831054688 l 5
 256.170898438 444.168945312 l 5
 144.508789062 444.168945312 l 5
477.829101562 444.168945312 m 5
 477.829101562 555.831054688 l 5
 589.491210938 555.831054688 l 5
 589.491210938 444.168945312 l 5
 477.829101562 444.168945312 l 5
144.508789062 333.33984375 m 5
 144.508789062 444.168945312 l 5
 256.170898438 444.168945312 l 5
 256.170898438 333.33984375 l 5
 144.508789062 333.33984375 l 5
477.829101562 333.33984375 m 5
 477.829101562 444.168945312 l 5
 589.491210938 444.168945312 l 5
 589.491210938 333.33984375 l 5
 477.829101562 333.33984375 l 5
144.508789062 222.510742188 m 5
 144.508789062 333.33984375 l 5
 256.170898438 333.33984375 l 5
 256.170898438 222.510742188 l 5
 144.508789062 222.510742188 l 5
477.829101562 222.510742188 m 5
 477.829101562 333.33984375 l 5
 589.491210938 333.33984375 l 5
 589.491210938 222.510742188 l 5
 477.829101562 222.510742188 l 5
256.170898438 110.848632812 m 5
 256.170898438 222.510742188 l 5
 367 222.510742188 l 5
 367 110.848632812 l 5
 256.170898438 110.848632812 l 5
477.829101562 110.848632812 m 5
 477.829101562 222.510742188 l 5
 589.491210938 222.510742188 l 5
 589.491210938 110.848632812 l 5
 477.829101562 110.848632812 l 5
367 0.01953125 m 5
 367 110.848632812 l 5
 477.829101562 110.848632812 l 5
 477.829101562 0.01953125 l 5
 367 0.01953125 l 5
EndSplineSet
EndChar

StartChar: w
Encoding: 119 119 48
Width: 734
Flags: HW
LayerCount: 2
Fore
SplineSet
144.508789062 555.831054688 m 5
 144.508789062 666.66015625 l 5
 256.170898438 666.66015625 l 5
 256.170898438 555.831054688 l 5
 144.508789062 555.831054688 l 5
477.829101562 555.831054688 m 5
 477.829101562 666.66015625 l 5
 589.491210938 666.66015625 l 5
 589.491210938 555.831054688 l 5
 477.829101562 555.831054688 l 5
144.508789062 444.168945312 m 5
 144.508789062 555.831054688 l 5
 256.170898438 555.831054688 l 5
 256.170898438 444.168945312 l 5
 144.508789062 444.168945312 l 5
477.829101562 444.168945312 m 5
 477.829101562 555.831054688 l 5
 589.491210938 555.831054688 l 5
 589.491210938 444.168945312 l 5
 477.829101562 444.168945312 l 5
144.508789062 333.33984375 m 5
 144.508789062 444.168945312 l 5
 256.170898438 444.168945312 l 5
 256.170898438 333.33984375 l 5
 144.508789062 333.33984375 l 5
477.829101562 333.33984375 m 5
 477.829101562 444.168945312 l 5
 589.491210938 444.168945312 l 5
 589.491210938 333.33984375 l 5
 477.829101562 333.33984375 l 5
144.508789062 222.510742188 m 5
 144.508789062 333.33984375 l 5
 256.170898438 333.33984375 l 5
 256.170898438 222.510742188 l 5
 144.508789062 222.510742188 l 5
256.170898438 222.510742188 m 5
 256.170898438 333.33984375 l 5
 367 333.33984375 l 5
 367 222.510742188 l 5
 256.170898438 222.510742188 l 5
477.829101562 222.510742188 m 5
 477.829101562 333.33984375 l 5
 589.491210938 333.33984375 l 5
 589.491210938 222.510742188 l 5
 477.829101562 222.510742188 l 5
144.508789062 110.848632812 m 5
 144.508789062 222.510742188 l 5
 256.170898438 222.510742188 l 5
 256.170898438 110.848632812 l 5
 144.508789062 110.848632812 l 5
256.170898438 110.848632812 m 5
 256.170898438 222.510742188 l 5
 367 222.510742188 l 5
 367 110.848632812 l 5
 256.170898438 110.848632812 l 5
367 110.848632812 m 5
 367 222.510742188 l 5
 477.829101562 222.510742188 l 5
 477.829101562 110.848632812 l 5
 367 110.848632812 l 5
477.829101562 110.848632812 m 5
 477.829101562 222.510742188 l 5
 589.491210938 222.510742188 l 5
 589.491210938 110.848632812 l 5
 477.829101562 110.848632812 l 5
144.508789062 0.01953125 m 5
 144.508789062 110.848632812 l 5
 256.170898438 110.848632812 l 5
 256.170898438 0.01953125 l 5
 144.508789062 0.01953125 l 5
367 0.01953125 m 5
 367 110.848632812 l 5
 477.829101562 110.848632812 l 5
 477.829101562 0.01953125 l 5
 367 0.01953125 l 5
477.829101562 0.01953125 m 5
 477.829101562 110.848632812 l 5
 589.491210938 110.848632812 l 5
 589.491210938 0.01953125 l 5
 477.829101562 0.01953125 l 5
EndSplineSet
EndChar

StartChar: x
Encoding: 120 120 49
Width: 734
Flags: HW
LayerCount: 2
Fore
SplineSet
144.791992188 555.547851562 m 1
 144.791992188 666.65234375 l 1
 255.896484375 666.65234375 l 1
 255.896484375 555.547851562 l 1
 144.791992188 555.547851562 l 1
478.103515625 555.547851562 m 1
 478.103515625 666.65234375 l 1
 589.208007812 666.65234375 l 1
 589.208007812 555.547851562 l 1
 478.103515625 555.547851562 l 1
144.791992188 444.444335938 m 1
 144.791992188 555.547851562 l 1
 255.896484375 555.547851562 l 1
 255.896484375 444.444335938 l 1
 144.791992188 444.444335938 l 1
478.103515625 444.444335938 m 1
 478.103515625 555.547851562 l 1
 589.208007812 555.547851562 l 1
 589.208007812 444.444335938 l 1
 478.103515625 444.444335938 l 1
255.896484375 333.33984375 m 1
 255.896484375 444.444335938 l 1
 367 444.444335938 l 1
 367 333.33984375 l 1
 255.896484375 333.33984375 l 1
367 333.33984375 m 1
 367 444.444335938 l 1
 478.103515625 444.444335938 l 1
 478.103515625 333.33984375 l 1
 367 333.33984375 l 1
255.896484375 222.236328125 m 1
 255.896484375 333.33984375 l 1
 367 333.33984375 l 1
 367 222.236328125 l 1
 255.896484375 222.236328125 l 1
367 222.236328125 m 1
 367 333.33984375 l 1
 478.103515625 333.33984375 l 1
 478.103515625 222.236328125 l 1
 367 222.236328125 l 1
144.791992188 111.131835938 m 1
 144.791992188 222.236328125 l 1
 255.896484375 222.236328125 l 1
 255.896484375 111.131835938 l 1
 144.791992188 111.131835938 l 1
478.103515625 111.131835938 m 1
 478.103515625 222.236328125 l 1
 589.208007812 222.236328125 l 1
 589.208007812 111.131835938 l 1
 478.103515625 111.131835938 l 1
144.791992188 0.0283203125 m 1
 144.791992188 111.131835938 l 1
 255.896484375 111.131835938 l 1
 255.896484375 0.0283203125 l 1
 144.791992188 0.0283203125 l 1
478.103515625 0.0283203125 m 1
 478.103515625 111.131835938 l 1
 589.208007812 111.131835938 l 1
 589.208007812 0.0283203125 l 1
 478.103515625 0.0283203125 l 1
EndSplineSet
EndChar

StartChar: y
Encoding: 121 121 50
Width: 734
Flags: HW
LayerCount: 2
Fore
SplineSet
144.508789062 555.831054688 m 5
 144.508789062 666.66015625 l 5
 256.170898438 666.66015625 l 5
 256.170898438 555.831054688 l 5
 144.508789062 555.831054688 l 5
477.829101562 555.831054688 m 5
 477.829101562 666.66015625 l 5
 589.491210938 666.66015625 l 5
 589.491210938 555.831054688 l 5
 477.829101562 555.831054688 l 5
144.508789062 444.168945312 m 5
 144.508789062 555.831054688 l 5
 256.170898438 555.831054688 l 5
 256.170898438 444.168945312 l 5
 144.508789062 444.168945312 l 5
477.829101562 444.168945312 m 5
 477.829101562 555.831054688 l 5
 589.491210938 555.831054688 l 5
 589.491210938 444.168945312 l 5
 477.829101562 444.168945312 l 5
144.508789062 333.33984375 m 5
 144.508789062 444.168945312 l 5
 256.170898438 444.168945312 l 5
 256.170898438 333.33984375 l 5
 144.508789062 333.33984375 l 5
256.170898438 333.33984375 m 5
 256.170898438 444.168945312 l 5
 367 444.168945312 l 5
 367 333.33984375 l 5
 256.170898438 333.33984375 l 5
367 333.33984375 m 5
 367 444.168945312 l 5
 477.829101562 444.168945312 l 5
 477.829101562 333.33984375 l 5
 367 333.33984375 l 5
477.829101562 333.33984375 m 5
 477.829101562 444.168945312 l 5
 589.491210938 444.168945312 l 5
 589.491210938 333.33984375 l 5
 477.829101562 333.33984375 l 5
256.170898438 222.510742188 m 5
 256.170898438 333.33984375 l 5
 367 333.33984375 l 5
 367 222.510742188 l 5
 256.170898438 222.510742188 l 5
256.170898438 110.848632812 m 5
 256.170898438 222.510742188 l 5
 367 222.510742188 l 5
 367 110.848632812 l 5
 256.170898438 110.848632812 l 5
256.170898438 0.01953125 m 5
 256.170898438 110.848632812 l 5
 367 110.848632812 l 5
 367 0.01953125 l 5
 256.170898438 0.01953125 l 5
EndSplineSet
EndChar

StartChar: z
Encoding: 122 122 51
Width: 734
Flags: HW
LayerCount: 2
Fore
SplineSet
256.170898438 555.831054688 m 1
 256.170898438 666.66015625 l 1
 367 666.66015625 l 1
 367 555.831054688 l 1
 256.170898438 555.831054688 l 1
367 555.831054688 m 1
 367 666.66015625 l 1
 477.829101562 666.66015625 l 1
 477.829101562 555.831054688 l 1
 367 555.831054688 l 1
477.829101562 555.831054688 m 1
 477.829101562 666.66015625 l 1
 589.491210938 666.66015625 l 1
 589.491210938 555.831054688 l 1
 477.829101562 555.831054688 l 1
477.829101562 444.168945312 m 1
 477.829101562 555.831054688 l 1
 589.491210938 555.831054688 l 1
 589.491210938 444.168945312 l 1
 477.829101562 444.168945312 l 1
367 333.33984375 m 1
 367 444.168945312 l 1
 477.829101562 444.168945312 l 1
 477.829101562 333.33984375 l 1
 367 333.33984375 l 1
256.170898438 222.510742188 m 1
 256.170898438 333.33984375 l 1
 367 333.33984375 l 1
 367 222.510742188 l 1
 256.170898438 222.510742188 l 1
144.508789062 110.848632812 m 1
 144.508789062 222.510742188 l 1
 256.170898438 222.510742188 l 1
 256.170898438 110.848632812 l 1
 144.508789062 110.848632812 l 1
144.508789062 0.01953125 m 1
 144.508789062 110.848632812 l 1
 256.170898438 110.848632812 l 1
 256.170898438 0.01953125 l 1
 144.508789062 0.01953125 l 1
256.170898438 0.01953125 m 1
 256.170898438 110.848632812 l 1
 367 110.848632812 l 1
 367 0.01953125 l 1
 256.170898438 0.01953125 l 1
367 0.01953125 m 1
 367 110.848632812 l 1
 477.829101562 110.848632812 l 1
 477.829101562 0.01953125 l 1
 367 0.01953125 l 1
477.829101562 0.01953125 m 1
 477.829101562 110.848632812 l 1
 589.491210938 110.848632812 l 1
 589.491210938 0.01953125 l 1
 477.829101562 0.01953125 l 1
EndSplineSet
EndChar
